<svg xmlns="http://www.w3.org/2000/svg" version="1.1" xmlns:xlink="http://www.w3.org/1999/xlink" xmlns:svgjs="http://svgjs.dev/svgjs" width="1000" height="212" viewBox="0 0 1000 212"><g transform="matrix(1,0,0,1,-0.6060606060606233,-0.3690403753569029)"><svg viewBox="0 0 396 84" data-background-color="#ffffff" preserveAspectRatio="xMidYMid meet" height="212" width="1000" xmlns="http://www.w3.org/2000/svg" xmlns:xlink="http://www.w3.org/1999/xlink"><g id="tight-bounds" transform="matrix(1,0,0,1,0.2400000000000091,0.1462235449527327)"><svg viewBox="0 0 395.52 83.70747555143488" height="83.70747555143488" width="395.52"><g><svg viewBox="0 0 526.5736949651289 111.44355455431396" height="83.70747555143488" width="395.52"><g transform="matrix(1,0,0,1,131.05369496512884,24.919246996804862)"><svg viewBox="0 0 395.52 61.60506056070424" height="61.60506056070424" width="395.52"><g id="textblocktransform"><svg viewBox="0 0 395.52 61.60506056070424" height="61.60506056070424" width="395.52" id="textblock"><g><svg viewBox="0 0 395.52 33.22682595573441" height="33.22682595573441" width="395.52"><g transform="matrix(1,0,0,1,0,0)"><svg width="395.52" viewBox="0.4 -29.6 397.55 33.36666299993" height="33.22682595573441" data-palette-color="#000000"><path d="M9.8-20.4L9.8-20.4Q9.8-19.6 10.23-19 10.65-18.4 11-18.15L11-18.15Q11.7-17.7 12.8-17.15L12.8-17.15Q13.4-16.7 13.05-16.6L13.05-16.6Q12.9-16.6 12.7-16.65L12.7-16.65Q11.5-16.9 10.15-18.1 8.8-19.3 8.75-20.85L8.75-20.85Q8.6-21.4 8.6-21.8L8.6-21.8Q8.6-23.95 10.4-25.55L10.4-25.55Q13.75-28.4 21.05-28.4L21.05-28.4Q21.05-28.6 21.2-28.9L21.2-28.9Q21.3-29.5 22.75-29.5L22.75-29.5Q24-29.5 23.95-28.9L23.95-28.9Q23.75-28.5 23.7-28.25L23.7-28.25Q26.9-28.05 29.05-26.95L29.05-26.95Q29.75-26.6 30.08-26.1 30.4-25.6 30.4-25.4L30.4-25.4Q30.4-24.95 28.58-25.58 26.75-26.2 23-26.2L23-26.2Q22.75-25.15 21.28-20.9 19.8-16.65 19.4-15.63 19-14.6 18.3-12.78 17.6-10.95 17.05-9.8 16.5-8.65 15.8-7.2L15.8-7.2Q14.6-4.75 12.95-2.6L12.95-2.6Q11.7-1.15 11.05-0.65L11.05-0.65Q11.9-0.65 14.35-0.65 16.8-0.65 18.65-0.78 20.5-0.9 20.68-0.75 20.85-0.6 20.7-0.4L20.7-0.4Q20.4 0.1 19.9 0.38 19.4 0.65 12.55 0.85 5.7 1.05 4 1.05 2.3 1.05 1.55 1.05L1.55 1.05Q0.4 1 0.4 0.15L0.4 0.15Q0.4-0.3 0.7-1.1L0.7-1.1Q1.05-1.9 2.08-2.13 3.1-2.35 3.9-1.7L3.9-1.7Q5.25-0.6 6.55-0.6 7.85-0.6 9.22-1.1 10.6-1.6 12-3.4L12-3.4Q16.05-8.8 20.5-26.15L20.5-26.15Q15.9-25.75 12.85-24.28 9.8-22.8 9.8-20.4ZM24 0.5L24 0.5Q23.35 1.25 23.72 1.7 24.1 2.15 24.57 2.15 25.05 2.15 25.55 2L25.55 2Q27.7 1.35 29.72-0.58 31.75-2.5 31.75-4.5L31.75-4.5Q31.75-5.6 29.3-6.9L29.3-6.9Q28.15-7.5 28-7.6L28-7.6Q26.65-8.5 26.3-9.4L26.3-9.4Q25.6-8.2 24.05-5.95L24.05-5.95Q23.7-5.55 23.4-5.78 23.1-6 23.35-6.4L23.35-6.4Q25.4-9.2 26.05-11.1L26.05-11.1Q26.4-13.85 30.05-16.05 33.7-18.25 36.7-18.25L36.7-18.25Q38.6-18.25 39.37-17.57 40.15-16.9 40.15-16.25 40.15-15.6 39.77-14.75 39.4-13.9 38.25-13.15L38.25-13.15Q37.95-12.95 37.75-13.25L37.75-13.25Q37.65-13.55 38.17-14.08 38.7-14.6 38.85-15.5 39-16.4 38.05-16.6L38.05-16.6Q37.9-16.6 37.75-16.6L37.75-16.6Q35.8-16.6 32.87-15.15 29.95-13.7 28.3-11.4L28.3-11.4Q27.65-10.55 27.65-9.68 27.65-8.8 28.85-8.1L28.85-8.1Q29.35-7.8 30.55-7.15 31.75-6.5 32.25-6.2 32.75-5.9 33.45-5.25 34.15-4.6 34.2-4.05L34.2-4.05Q34.45-2.55 32.8-0.75L32.8-0.75Q30.45 1.85 25.8 2.9L25.8 2.9Q24.75 3.15 23.67 3.15 22.6 3.15 22.2 2.35L22.2 2.35Q22.05 2.15 22.05 1.73 22.05 1.3 22.85 0.35L22.85 0.35Q23.6-0.4 25.25-1.1L25.25-1.1Q25.4-1.15 25.5-1.05 25.6-0.95 25.55-0.8 25.5-0.65 25.02-0.45 24.55-0.25 24 0.5ZM55.65-25.5L55.65-25.5Q56.25-26.6 56.25-27.2L56.25-27.2Q56.25-28.25 55.4-28.25L55.4-28.25Q54.7-28.25 53.65-27.45L53.65-27.45Q49.65-24.35 45.9-17.65L45.9-17.65Q42.9-12.25 41.5-8.4L41.5-8.4Q44.95-10.75 49.22-16.05 53.5-21.35 55.65-25.5ZM40.75-6.4L40.75-6.4Q40.15-4.7 40.09-4.13 40.05-3.55 40.05-2.58 40.05-1.6 40.55-0.8L40.55-0.8Q41.4 0.55 43.4-0.6L43.4-0.6Q44.9-1.4 47.2-3.53 49.5-5.65 50.75-7.4L50.75-7.4Q50.84-7.55 51.05-7.55L51.05-7.55Q51.5-7.55 51.3-6.9L51.3-6.9Q50.55-5.55 48.52-3.45 46.5-1.35 44.84-0.13 43.2 1.1 41.55 1.1L41.55 1.1Q37.75 1.1 37.75-2.6L37.75-2.6Q37.75-2.75 37.75-2.9L37.75-2.9Q37.95-6.4 41.3-13.48 44.65-20.55 47.34-24.15L47.34-24.15 48.9-26.1Q49.45-26.75 50.5-27.7L50.5-27.7Q52.5-29.6 54.62-29.6 56.75-29.6 57.5-28.3L57.5-28.3Q57.75-27.85 57.75-27 57.75-26.15 57-24.6L57-24.6Q51.84-15.65 40.75-6.4ZM52.54 0.55L52.54 0.55Q51.74 0.55 50.82 0.08 49.89-0.4 49.24-1.28 48.59-2.15 48.59-3.15 48.59-4.15 49.04-5.05L49.04-5.05Q50.04-7.15 52.27-9.13 54.49-11.1 56.89-12.5 59.29-13.9 60.69-14.25 62.09-14.6 63.42-14.6 64.74-14.6 65.69-13.93 66.64-13.25 66.64-12.5L66.64-12.5Q66.64-12.25 66.59-12.2 66.54-12.15 66.34-12.25L66.34-12.25Q65.74-13.2 63.87-13.2 61.99-13.2 59.62-11.98 57.24-10.75 55.14-8.9L55.14-8.9Q53.39-7.25 52.07-5.18 50.74-3.1 50.74-2.15L50.74-2.15Q50.74-0.3 51.79-0.3 52.84-0.3 54.99-2L54.99-2Q58.54-5 59.84-6.4L59.84-6.4Q64.44-11.35 64.79-11.35L64.79-11.35Q65.39-11.35 66.24-11 67.09-10.65 66.79-10.15L66.79-10.15Q64.24-6.55 63.79-2.9L63.79-2.9Q63.74-2.45 63.74-1.75 63.74-1.05 64.14-0.6L64.14-0.6Q64.89 0.2 66.19-0.5 67.49-1.2 69.82-3.3 72.14-5.4 73.54-7.4L73.54-7.4Q73.74-7.65 73.99-7.53 74.24-7.4 74.24-7.3L74.24-7.3Q74.24-6.55 71.87-4.03 69.49-1.5 68.24-0.6L68.24-0.6Q65.89 1.15 63.89 1.15L63.89 1.15Q61.99 1.15 61.34-0.75L61.34-0.75Q61.19-1.35 61.19-2.1L61.19-2.1Q61.19-4.35 62.14-6.85L62.14-6.85Q61.94-6.75 60.29-4.85 58.64-2.95 56.47-1.2 54.29 0.55 52.54 0.55ZM79.44-13L79.44-13Q79.44-12.65 78.89-11.48 78.34-10.3 75.74-3.4L75.74-3.4Q77.54-5.6 80.29-8.5L80.29-8.5Q85.84-14.3 87.94-14.3L87.94-14.3Q88.39-14.3 88.82-14.05 89.24-13.8 89.24-12.93 89.24-12.05 88.69-10.98 88.14-9.9 87.44-8.35 86.74-6.8 86.49-6.4L86.49-6.4Q90.69-10.2 92.84-11.03 94.99-11.85 95.69-11.85 96.39-11.85 96.39-11.35L96.39-11.35Q96.39-11.05 95.64-9.9 94.89-8.75 93.99-6.5 93.09-4.25 92.99-3.35 92.89-2.45 92.89-1.75 92.89-1.05 93.29-0.6L93.29-0.6Q94.04 0.2 95.34-0.5 96.64-1.2 98.97-3.3 101.29-5.4 102.69-7.4L102.69-7.4Q102.89-7.65 103.17-7.53 103.44-7.4 103.44-7.28 103.44-7.15 103.34-7L103.34-7Q102.59-5.65 100.64-3.55L100.64-3.55Q97.44-0.1 95.29 0.7L95.29 0.7Q92.94 1.5 91.89 0.9 90.84 0.3 90.59-0.45 90.34-1.2 90.34-1.95L90.34-1.95Q90.34-4.3 91.27-6.65 92.19-9 92.74-9.85L92.74-9.85Q90.84-9.05 89.49-7.85L89.49-7.85Q87.44-6.05 86.19-4.7L86.19-4.7 85.19-3.6Q84.74-2.5 83.62-2.35 82.49-2.2 82.54-3.1L82.54-3.1Q82.64-4.05 84.39-7.35 86.14-10.65 86.14-11.03 86.14-11.4 85.74-11.4L85.74-11.4Q84.84-11.4 82.49-9.35L82.49-9.35Q80.94-7.9 77.92-3.88 74.89 0.15 74.49 0.4L74.49 0.4Q72.69 1.3 72.24 1.3 71.79 1.3 71.79 1.15 71.79 1 71.94 0.7 72.09 0.4 74.99-8L74.99-8Q73.89-6.3 72.99-5.4L72.99-5.4Q72.59-4.95 72.59-5.58 72.59-6.2 72.94-6.65L72.94-6.65Q75.19-9.6 76.24-11.65L76.24-11.65Q76.54-13.4 77.44-13.7L77.44-13.7Q77.99-13.9 78.72-13.7 79.44-13.5 79.44-13ZM106.89-13.85L106.89-13.85Q108.14-13.85 108.39-13.05L108.39-13.05Q108.49-12.6 108.26-12.18 108.04-11.75 107.94-11.5 107.84-11.25 107.79-11.1L107.79-11.1Q107.54-10.6 107.29-10.15L107.29-10.15Q104.44-4.45 104.29-2.9L104.29-2.9Q104.24-2.45 104.24-1.75 104.24-1.05 104.64-0.6L104.64-0.6Q105.34 0.2 106.64-0.5 107.94-1.2 110.26-3.3 112.59-5.4 114.04-7.4L114.04-7.4Q114.24-7.65 114.49-7.53 114.74-7.4 114.74-7.28 114.74-7.15 114.64-7L114.64-7Q113.89-5.65 111.94-3.55L111.94-3.55Q108.74-0.1 106.59 0.7L106.59 0.7Q105.34 1.15 104.49 1.15L104.49 1.15Q102.49 1.15 101.84-0.75L101.84-0.75Q101.74-1.1 101.74-1.6L101.74-1.6Q101.74-3.35 103.34-6.9L103.34-6.9Q103.09-6.35 101.39-4.4L101.39-4.4Q100.94-3.9 100.69-4.4L100.69-4.4Q100.64-4.5 100.64-4.67 100.64-4.85 100.84-5.1L100.84-5.1Q103.29-8.15 104.69-10.25L104.69-10.25Q104.59-10.5 104.79-10.9L104.79-10.9Q105.79-13.7 106.54-13.85L106.54-13.85Q106.69-13.85 106.89-13.85ZM110.84-20.5L110.84-20.5 110.44-18.9Q110.44-18.45 109.79-17.45 109.14-16.45 108.79-16.45L108.79-16.45Q106.64-16.45 106.64-17.5L106.64-17.5Q106.64-17.7 108.79-19.35L108.79-19.35 109.64-20Q110.44-20.7 110.64-20.7 110.84-20.7 110.84-20.5ZM125.94-11L125.94-11 126.19-12Q126.19-13 125.44-13L125.44-13Q123.39-13 119.84-9.8 116.29-6.6 115.34-3.35L115.34-3.35Q115.09-2.5 115.09-1.83 115.09-1.15 115.39-0.7L115.39-0.7Q115.99 0.2 117.24 0.2 118.49 0.2 119.94-0.15L119.94-0.15Q123.14-1.05 125.26-2.73 127.39-4.4 129.74-7.4L129.74-7.4Q129.94-7.65 130.21-7.55 130.49-7.45 130.49-7.28 130.49-7.1 130.34-6.75L130.34-6.75Q127.94-3.5 125.31-1.48 122.69 0.55 119.24 1.15L119.24 1.15Q118.24 1.3 117.39 1.3L117.39 1.3Q114.94 1.3 113.66 0.1 112.39-1.1 112.39-2.55 112.39-4 113.09-5.7L113.09-5.7Q114.34-8.55 118.44-11.55 122.54-14.55 124.94-14.55L124.94-14.55Q125.54-14.55 126.09-14.4L126.09-14.4Q127.49-13.9 127.49-12.8L127.49-12.8Q127.49-12.05 126.94-11.1 126.39-10.15 126.11-10.43 125.84-10.7 125.94-11ZM142.13-15.45L142.13-15.45 142.03-16.25Q142.03-19.75 145.08-22.5L145.08-22.5Q150.53-27.35 162.68-28.5L162.68-28.5Q164.53-28.65 167.01-28.65 169.48-28.65 173.28-27.93 177.08-27.2 179.53-25.25L179.53-25.25Q183.43-22.05 183.43-16.88 183.43-11.7 180.36-7.33 177.28-2.95 172.53-0.55 167.78 1.85 162.38 1.85 156.98 1.85 153.63-0.7L153.63-0.7Q153.58-0.65 153.16 0.15 152.73 0.95 152.28 1.7L152.28 1.7Q149.98 5.35 148.18 2.7L148.18 2.7Q147.13 1.15 147.13-1 147.13-3.15 147.58-6.2L147.58-6.2Q147.63-6.5 147.18-7.6L147.18-7.6Q147.03-8.1 147.53-8.6L147.53-8.6Q147.93-8.9 148.66-9.1 149.38-9.3 149.66-9.1 149.93-8.9 149.53-8.03 149.13-7.15 149.13-6.4 149.13-5.65 150.68-4.17 152.23-2.7 152.58-2.6L152.58-2.6Q153.78-5.55 157.68-13.65L157.68-13.65Q158.13-14.55 158.13-15 158.13-15.45 158.03-15.7L158.03-15.7Q158.28-17.15 161.21-20.3 164.13-23.45 165.93-23.45L165.93-23.45Q166.63-23.45 167.68-22.98 168.73-22.5 168.88-21.65L168.88-21.65Q168.88-21.35 168.83-21.33 168.78-21.3 168.58-21.4 168.38-21.5 168.28-21.5L168.28-21.5Q166.68-21.5 164.51-19.18 162.33-16.85 160.18-13.1L160.18-13.1Q156.38-6.6 154.08-1.6L154.08-1.6Q157.18 0.65 160.83 0.65L160.83 0.65Q165.58 0.65 169.93-1.8 174.28-4.25 176.93-7.45L176.93-7.45Q181.23-12.7 181.23-17.8L181.23-17.8Q181.23-21.55 178.26-24.5 175.28-27.45 168.83-27.65L168.83-27.65Q168.53-27.65 168.23-27.65L168.23-27.65Q163.13-27.65 157.48-25.98 151.83-24.3 147.83-21.2 143.83-18.1 143.83-14.75L143.83-14.75Q143.83-13.9 144.36-13.25 144.88-12.6 145.46-12.35 146.03-12.1 146.91-11.8 147.78-11.5 148.06-11.38 148.33-11.25 148.38-11.1L148.38-11.1Q148.48-10.7 147.68-10.7L147.68-10.7Q145.83-10.85 143.96-12.08 142.08-13.3 142.08-14.95L142.08-14.95Q142.08-15.2 142.13-15.45ZM148.88-4.5L148.88-4.5Q148.88 2.25 149.83 2.25L149.83 2.25Q150.53 2.25 151.83-1.25L151.83-1.25Q151.93-1.4 151.93-1.45L151.93-1.45Q151.58-1.75 150.46-2.93 149.33-4.1 148.88-4.5ZM186.03 0.55L186.03 0.55Q185.23 0.55 184.3 0.08 183.38-0.4 182.73-1.28 182.08-2.15 182.08-3.15 182.08-4.15 182.53-5.05L182.53-5.05Q183.53-7.15 185.75-9.13 187.98-11.1 190.38-12.5 192.78-13.9 194.18-14.25 195.58-14.6 196.9-14.6 198.23-14.6 199.18-13.93 200.13-13.25 200.13-12.5L200.13-12.5Q200.13-12.25 200.08-12.2 200.03-12.15 199.83-12.25L199.83-12.25Q199.23-13.2 197.35-13.2 195.48-13.2 193.1-11.98 190.73-10.75 188.63-8.9L188.63-8.9Q186.88-7.25 185.55-5.18 184.23-3.1 184.23-2.15L184.23-2.15Q184.23-0.3 185.28-0.3 186.33-0.3 188.48-2L188.48-2Q192.03-5 193.33-6.4L193.33-6.4Q197.93-11.35 198.28-11.35L198.28-11.35Q198.88-11.35 199.73-11 200.58-10.65 200.28-10.15L200.28-10.15Q197.73-6.55 197.28-2.9L197.28-2.9Q197.23-2.45 197.23-1.75 197.23-1.05 197.63-0.6L197.63-0.6Q198.38 0.2 199.68-0.5 200.98-1.2 203.3-3.3 205.63-5.4 207.03-7.4L207.03-7.4Q207.23-7.65 207.48-7.53 207.73-7.4 207.73-7.3L207.73-7.3Q207.73-6.55 205.35-4.03 202.98-1.5 201.73-0.6L201.73-0.6Q199.38 1.15 197.38 1.15L197.38 1.15Q195.48 1.15 194.83-0.75L194.83-0.75Q194.68-1.35 194.68-2.1L194.68-2.1Q194.68-4.35 195.63-6.85L195.63-6.85Q195.43-6.75 193.78-4.85 192.13-2.95 189.95-1.2 187.78 0.55 186.03 0.55ZM214.05-12.5Q213.33-11.9 211.4-9.38 209.48-6.85 208.75-4.9 208.03-2.95 208.03-1.7 208.03-0.45 209.1-0.45 210.18-0.45 212.13-2L212.13-2Q215.28-4.6 219.23-11.65L219.23-11.65Q219.43-12 219.95-12 220.48-12 221.4-11.73 222.33-11.45 222.33-11L222.33-11Q222.33-10.85 222.23-10.7L222.23-10.7Q220.13-7.3 219.58-3L219.58-3Q219.38-1.55 220.08-0.65L220.08-0.65Q220.73 0.25 222.73-0.85L222.73-0.85Q225.83-2.4 228.4-5.7 230.98-9 231.58-11.65L231.58-11.65Q231.78-12.2 231.78-12.85L231.78-12.85Q231.78-15.65 230.18-16.25L230.18-16.25Q229.73-16.45 229.18-16.38 228.63-16.3 228.53-16.43 228.43-16.55 228.48-16.7L228.48-16.7Q228.58-17.15 230.53-17.15L230.53-17.15Q233.78-17.15 233.78-13.8 233.78-10.45 229.98-5.75L229.98-5.75Q227.58-2.9 224.33-0.5L224.33-0.5Q222.53 0.75 220.58 0.75L220.58 0.75Q218.03 0.75 217.43-1.15L217.43-1.15Q217.08-2.05 217.08-4 217.08-5.95 217.58-7.2L217.58-7.2Q216.23-4.5 214.63-2.65 213.03-0.8 211.9-0.13 210.78 0.55 209.63 0.55L209.63 0.55Q207.63 0.55 206.83-0.53 206.03-1.6 206.03-2.85L206.03-2.85Q206.03-4.5 206.75-6.43 207.48-8.35 208.2-9.47 208.93-10.6 210.1-12.18 211.28-13.75 211.63-13.9L211.63-13.9Q212.38-14.1 213.05-14.1 213.73-14.1 214.23-13.9 214.73-13.7 214.75-13.4 214.78-13.1 214.05-12.5ZM236.37 0.55L236.37 0.55Q235.57 0.55 234.65 0.08 233.72-0.4 233.07-1.28 232.42-2.15 232.42-3.15 232.42-4.15 232.87-5.05L232.87-5.05Q233.87-7.15 236.1-9.13 238.32-11.1 240.72-12.5 243.12-13.9 244.52-14.25 245.92-14.6 247.25-14.6 248.57-14.6 249.52-13.93 250.47-13.25 250.47-12.5L250.47-12.5Q250.47-12.25 250.42-12.2 250.37-12.15 250.17-12.25L250.17-12.25Q249.57-13.2 247.7-13.2 245.82-13.2 243.45-11.98 241.07-10.75 238.97-8.9L238.97-8.9Q237.22-7.25 235.9-5.18 234.57-3.1 234.57-2.15L234.57-2.15Q234.57-0.3 235.62-0.3 236.67-0.3 238.82-2L238.82-2Q242.37-5 243.67-6.4L243.67-6.4Q248.27-11.35 248.62-11.35L248.62-11.35Q249.22-11.35 250.07-11 250.92-10.65 250.62-10.15L250.62-10.15Q248.07-6.55 247.62-2.9L247.62-2.9Q247.57-2.45 247.57-1.75 247.57-1.05 247.97-0.6L247.97-0.6Q248.72 0.2 250.02-0.5 251.32-1.2 253.65-3.3 255.97-5.4 257.37-7.4L257.37-7.4Q257.57-7.65 257.82-7.53 258.07-7.4 258.07-7.3L258.07-7.3Q258.07-6.55 255.7-4.03 253.32-1.5 252.07-0.6L252.07-0.6Q249.72 1.15 247.72 1.15L247.72 1.15Q245.82 1.15 245.17-0.75L245.17-0.75Q245.02-1.35 245.02-2.1L245.02-2.1Q245.02-4.35 245.97-6.85L245.97-6.85Q245.77-6.75 244.12-4.85 242.47-2.95 240.3-1.2 238.12 0.55 236.37 0.55ZM273.87-29.25L273.87-29.25Q274.77-29.6 275.42-29.6L275.42-29.6Q277.62-29.6 278.32-28.4L278.32-28.4Q278.72-27.8 278.72-27.35L278.72-27.35Q278.72-23.95 273.02-18.8L273.02-18.8Q267.97-14.35 263.72-11.15L263.72-11.15Q262.32-8 260.82-3.4L260.82-3.4Q262.62-5.6 265.37-8.5L265.37-8.5Q270.92-14.25 273.12-14.25L273.12-14.25Q274.22-14.25 274.27-13.15L274.27-13.15Q274.37-12 273.8-10.95 273.22-9.9 272.72-9L272.72-9Q270.37-5.1 270.37-2.05L270.37-2.05Q270.37-1.05 270.77-0.6L270.77-0.6Q271.47 0.2 272.77-0.5 274.07-1.2 276.4-3.3 278.72-5.4 280.17-7.4L280.17-7.4Q280.42-7.65 280.65-7.53 280.87-7.4 280.87-7.28 280.87-7.15 280.77-7L280.77-7Q280.02-5.65 278.07-3.58 276.12-1.5 274.92-0.6L274.92-0.6Q272.62 1.15 270.52 1.15L270.52 1.15Q268.62 1.15 267.97-0.75L267.97-0.75Q267.82-1.2 267.82-1.83 267.82-2.45 267.92-3.15L267.92-3.15Q268.17-5.25 270.57-9.7L270.57-9.7Q271.07-10.6 271.07-10.98 271.07-11.35 270.67-11.35L270.67-11.35Q269.87-11.35 267.57-9.35L267.57-9.35Q266.02-7.9 263-3.88 259.97 0.15 259.57 0.4L259.57 0.4Q257.77 1.3 257.35 1.3 256.92 1.3 256.87 1.18 256.82 1.05 256.92 0.85 257.02 0.65 257.72-1.35L257.72-1.35Q260.07-8 260.92-10.15L260.92-10.15Q259.27-8.05 256.82-5.4L256.82-5.4Q256.42-5 256.42-5.58 256.42-6.15 256.87-6.75 257.32-7.35 258.75-9.08 260.17-10.8 260.77-11.65L260.77-11.65Q260.32-11.9 260.3-12.35 260.27-12.8 260.6-12.98 260.92-13.15 261.67-12.85L261.67-12.85Q262.17-13.55 262.57-14.4L262.57-14.4Q268.52-27.2 273.87-29.25ZM276.67-25.5L276.67-25.5Q277.32-26.7 277.32-27.53 277.32-28.35 276.6-28.35 275.87-28.35 274.67-27.45L274.67-27.45Q269.17-23.25 264.72-13.4L264.72-13.4Q267.97-15.5 271.52-19 275.07-22.5 276.67-25.5ZM316.37-25.2L316.37-25.2Q316.37-28 313.42-28L313.42-28Q310.87-28 306.79-25.6 302.72-23.2 298.42-18.28 294.12-13.35 292.42-7.95L292.42-7.95Q291.72-5.8 291.72-3.98 291.72-2.15 292.77-0.8L292.77-0.8Q294.62 1.6 298.82 1.65L298.82 1.65Q299.12 1.65 299.37 1.65L299.37 1.65Q304.02 1.65 309.42-0.73 314.82-3.1 318.07-7.7L318.07-7.7Q318.32-8.05 318.59-7.85 318.87-7.65 318.87-7.5 318.87-7.35 318.77-7.25L318.77-7.25Q315.07-2.2 309.67 0.35 304.27 2.9 299.22 2.9L299.22 2.9Q293.92 2.9 291.22-0.1L291.22-0.1Q289.47-2.05 289.47-5.2L289.47-5.2Q289.47-10.5 293.47-16.6L293.47-16.6Q298.92-24.9 306.67-28.1L306.67-28.1Q309.67-29.3 312.42-29.3L312.42-29.3Q315.82-29.3 317.27-27.7L317.27-27.7Q318.22-26.6 318.22-25.15L318.22-25.15Q318.22-22.4 315.32-19.5 312.42-16.6 308.89-14.88 305.37-13.15 302.77-12.9L302.77-12.9Q301.72-12.8 301.77-13.45L301.77-13.45Q301.82-14.35 303.02-14.45L303.02-14.45Q307.02-14.8 310.37-16.88 313.72-18.95 315.52-22.4L315.52-22.4Q316.37-23.75 316.37-25.2ZM328.76-14.55L328.76-14.55Q331.46-14.55 331.46-11.95L331.46-11.95Q331.46-10.6 330.71-9.75L330.71-9.75Q329.46-7.9 326.66-6.53 323.86-5.15 321.91-5L321.91-5Q321.21-4.95 321.16-5.4L321.16-5.4Q321.11-5.6 321.29-5.65 321.46-5.7 321.56-5.7L321.56-5.7Q322.71-5.8 324.51-6.8L324.51-6.8Q327.86-8.6 329.41-10.5L329.41-10.5Q330.06-11.4 330.06-12.23 330.06-13.05 329.26-13.05L329.26-13.05Q328.61-13.05 327.51-12.5L327.51-12.5Q325.16-11.4 322.56-8.68 319.96-5.95 319.16-3.35L319.16-3.35Q318.91-2.55 318.91-1.78 318.91-1 319.56-0.3 320.21 0.4 321.56 0.4L321.56 0.4Q323.06 0.4 325.01-0.4L325.01-0.4Q330.66-2.7 333.71-7.35L333.71-7.35Q334.01-7.75 334.26-7.5L334.26-7.5Q334.46-7.4 334.46-7.25 334.46-7.1 334.31-6.9L334.31-6.9Q332.81-4.4 330.51-2.45L330.51-2.45Q326.06 1.35 321.86 1.35L321.86 1.35Q318.26 1.35 316.81-0.8L316.81-0.8Q316.26-1.65 316.26-2.85 316.26-4.05 316.91-5.7L316.91-5.7Q318.16-8.55 322.26-11.55 326.36-14.55 328.76-14.55ZM347.06-14.2L347.06-14.2Q348.21-14.2 348.21-12.98 348.21-11.75 347.06-9.6 345.91-7.45 345.36-6.1L345.36-6.1Q344.41-3.8 344.41-2.43 344.41-1.05 344.81-0.6L344.81-0.6Q345.56 0.2 346.86-0.53 348.16-1.25 350.49-3.33 352.81-5.4 354.21-7.4L354.21-7.4Q354.41-7.65 354.69-7.53 354.96-7.4 354.96-7.28 354.96-7.15 354.86-7L354.86-7Q354.11-5.65 352.16-3.55 350.21-1.45 348.41-0.18 346.61 1.1 344.86 1.1L344.86 1.1Q343.16 1.05 342.46 0.33 341.76-0.4 341.76-1.5 341.76-2.6 341.96-3.63 342.16-4.65 342.71-6L342.71-6Q343.61-8.15 344.29-9.35 344.96-10.55 344.96-10.93 344.96-11.3 344.56-11.3L344.56-11.3Q343.76-11.3 341.51-9.35L341.51-9.35Q339.96-7.9 336.94-3.88 333.91 0.15 333.51 0.4L333.51 0.4Q331.71 1.3 331.26 1.3 330.81 1.3 330.81 1.15 330.81 1 330.91 0.73 331.01 0.45 331.89-2 332.76-4.45 333.79-7.38 334.81-10.3 335.04-10.9 335.26-11.5 335.34-11.93 335.41-12.35 335.51-12.65 335.61-12.95 335.89-13.33 336.16-13.7 336.61-13.73 337.06-13.75 337.76-13.63 338.46-13.5 338.46-13L338.46-13Q338.46-12.65 337.91-11.48 337.36-10.3 334.76-3.4L334.76-3.4Q336.56-5.6 339.31-8.47 342.06-11.35 343.96-12.85L343.96-12.85Q345.86-14.2 347.06-14.2ZM360.96-13.95L361.61-14Q365.46-14.35 366.28-14.35 367.11-14.35 367.11-14.1L367.11-14.1Q367.11-13.8 365.93-13.48 364.76-13.15 360.21-12.65L360.21-12.65Q359.96-12.2 359.61-11.6L359.61-11.6Q358.86-10.4 358.81-10.15L358.81-10.15Q355.96-4.45 355.81-2.9L355.81-2.9Q355.76-2.45 355.76-1.75 355.76-1.05 356.16-0.6L356.16-0.6Q356.86 0.2 358.16-0.5 359.46-1.2 361.78-3.3 364.11-5.4 365.56-7.4L365.56-7.4Q365.76-7.65 366.06-7.5L366.06-7.5Q366.81-7.15 363.46-3.55L363.46-3.55Q360.26-0.1 358.11 0.7L358.11 0.7Q356.86 1.15 356.01 1.15L356.01 1.15Q354.01 1.15 353.36-0.75L353.36-0.75Q353.26-1.1 353.26-1.6L353.26-1.6Q353.26-3.35 354.86-6.9L354.86-6.9Q354.61-6.35 352.91-4.4L352.91-4.4Q352.46-3.9 352.21-4.4L352.21-4.4Q352.16-4.5 352.16-4.67 352.16-4.85 352.36-5.1L352.36-5.1Q354.81-8.15 356.21-10.25L356.21-10.25Q356.21-10.3 357.31-12.35L357.31-12.35Q356.81-12.25 356.28-12.25 355.76-12.25 355.51-12.58 355.26-12.9 355.46-13.35L355.46-13.35Q355.81-14.15 358.11-14.25L358.11-14.25Q358.16-14.35 358.31-14.35L358.31-14.35 360.81-19Q361.01-19.4 361.26-19.83 361.51-20.25 361.63-20.48 361.76-20.7 361.91-20.95 362.06-21.2 362.16-21.3 362.26-21.4 362.36-21.5L362.36-21.5Q362.56-21.8 363.53-21.8 364.51-21.8 364.86-21.25L364.86-21.25Q365.01-21.05 365.01-20.58 365.01-20.1 364.66-19.53 364.31-18.95 363.91-18.7 363.51-18.45 363.36-18.15L363.36-18.15 360.96-13.95ZM376.46-14.55L376.46-14.55Q379.16-14.55 379.16-11.95L379.16-11.95Q379.16-10.6 378.41-9.75L378.41-9.75Q377.16-7.9 374.36-6.53 371.56-5.15 369.61-5L369.61-5Q368.91-4.95 368.86-5.4L368.86-5.4Q368.81-5.6 368.98-5.65 369.16-5.7 369.26-5.7L369.26-5.7Q370.41-5.8 372.21-6.8L372.21-6.8Q375.56-8.6 377.11-10.5L377.11-10.5Q377.76-11.4 377.76-12.23 377.76-13.05 376.96-13.05L376.96-13.05Q376.31-13.05 375.21-12.5L375.21-12.5Q372.86-11.4 370.26-8.68 367.66-5.95 366.86-3.35L366.86-3.35Q366.61-2.55 366.61-1.78 366.61-1 367.26-0.3 367.91 0.4 369.26 0.4L369.26 0.4Q370.76 0.4 372.71-0.4L372.71-0.4Q378.36-2.7 381.41-7.35L381.41-7.35Q381.71-7.75 381.96-7.5L381.96-7.5Q382.16-7.4 382.16-7.25 382.16-7.1 382.01-6.9L382.01-6.9Q380.51-4.4 378.21-2.45L378.21-2.45Q373.76 1.35 369.56 1.35L369.56 1.35Q365.96 1.35 364.51-0.8L364.51-0.8Q363.96-1.65 363.96-2.85 363.96-4.05 364.61-5.7L364.61-5.7Q365.86-8.55 369.96-11.55 374.06-14.55 376.46-14.55ZM387.45 1.25L387.45 1.25Q384.9 1.25 384.9-1.83 384.9-4.9 389.3-9.4L389.3-9.4Q389.65-9.75 389.8-9.95L389.8-9.95 390.15-10.45Q390.85-11.4 390.8-11.65L390.8-11.65 390.65-12.1Q390.45-12.7 389-12.98 387.55-13.25 386.65-13.25L386.65-13.25Q382.15-6.9 381.45-6 380.75-5.1 380.5-5.25 380.25-5.4 380.25-5.6 380.25-5.8 380.55-6.2L380.55-6.2Q383.25-9.5 385.2-13.25L385.2-13.25Q384.6-13.35 384.3-13.68 384-14 384.25-14.78 384.5-15.55 385.78-16.85 387.05-18.15 388-18.6 388.95-19.05 389.2-19.15 389.45-19.25 389.75-19.25L389.75-19.25Q390.35-19.25 389.35-17.45L389.35-17.45 387.4-14.35Q389.65-14.2 391.25-14.2L391.25-14.2 393-14.25Q393.85-14.25 394.25-14.03 394.65-13.8 394.45-13.25L394.45-13.25Q394.1-12.3 392.7-10.7L392.7-10.7Q389.7-7.2 388.2-3.25L388.2-3.25Q387.85-2.3 387.85-1.6L387.85-1.6Q387.85-0.15 388.9-0.15L388.9-0.15Q389.25-0.15 390.23-0.7 391.2-1.25 393.5-3.33 395.8-5.4 397.2-7.4L397.2-7.4Q397.4-7.65 397.68-7.53 397.95-7.4 397.95-7.28 397.95-7.15 397.85-7L397.85-7Q397.1-5.65 395.15-3.55 393.2-1.45 391.35-0.15L391.35-0.15Q389.55 1.25 387.45 1.25Z" opacity="1" transform="matrix(1,0,0,1,0,0)" fill="#000000" class="undefined-text-0" data-fill-palette-color="primary" id="text-0"></path></svg></g></svg></g><g transform="matrix(1,0,0,1,0,41.07088212006037)"><svg viewBox="0 0 209.39894063059816 20.534178440643867" height="20.534178440643867" width="209.39894063059816"><g transform="matrix(1,0,0,1,0,0)"><svg width="209.39894063059816" viewBox="5.25 -36.35 505.75 49.6" height="20.534178440643867" data-palette-color="#61777f"><path d="M5.25-34.7L5.5-34.7 20.6-15.6 36.1-34.7 36.35-34.7 36.35-0.05 34.25-0.05 34.25-22.95Q34.25-24.65 34.48-27.15 34.7-29.65 34.95-30.75L34.95-30.75Q32.8-27.65 28.3-21.9 23.8-16.15 20.75-12.9L20.75-12.9 20-13.7Q16.05-17.8 11.6-23.3L11.6-23.3Q10.4-24.85 9-26.88 7.6-28.9 6.65-30.6L6.65-30.6Q7.35-25.15 7.35-22.95L7.35-22.95 7.35-0.05 5.25-0.05 5.25-34.7ZM62.6 0.25Q61.5-0.65 61.02-1.63 60.55-2.6 60-4.4L60-4.4Q58.2 0.45 52 0.45L52 0.45Q48 0.45 45.8-1.55 43.6-3.55 43.6-7.15L43.6-7.15Q43.6-11 46.25-12.95 48.9-14.9 54.05-14.9L54.05-14.9 59.9-14.9 59.9-17.1Q59.9-20.45 58.55-21.98 57.2-23.5 54.1-23.5L54.1-23.5Q52-23.5 49.92-22.85 47.85-22.2 46.2-20.95L46.2-20.95 45.2-22.5Q48.95-25.5 54.15-25.5L54.15-25.5Q58.15-25.5 60.07-23.58 62-21.65 62-17.65L62-17.65 62-7.05Q62-3.15 63.85-1L63.85-1 62.6 0.25ZM52.05-1.45Q55.6-1.45 57.75-3.48 59.9-5.5 59.9-8.75L59.9-8.75 59.9-13 54.3-13Q49.75-13 47.72-11.6 45.7-10.2 45.7-7.2L45.7-7.2Q45.7-4.4 47.4-2.93 49.1-1.45 52.05-1.45L52.05-1.45ZM69.1 11.45Q71.85 11.35 73.25 10.35L73.25 10.35Q73.95 9.8 74.6 8.93 75.25 8.05 75.55 7.15L75.55 7.15 77.5 0.95 66.7-25 68.9-25 78.45-1.8 85.5-25 87.7-25 77.5 7.85Q76.65 10.45 74.65 11.85L74.65 11.85Q72.65 13.2 69.4 13.25L69.4 13.25 69.1 11.45ZM116.99-25.25Q120.44-25.25 122.84-23.55 125.24-21.85 126.44-18.98 127.64-16.1 127.64-12.55L127.64-12.55Q127.64-8.7 126.22-5.78 124.79-2.85 122.07-1.2 119.34 0.45 115.54 0.45L115.54 0.45Q113.54 0.45 109.09-0.15L109.09-0.15 109.09 13 106.99 13 106.99-18.05Q106.99-20.25 106.54-21.53 106.09-22.8 105.14-24L105.14-24 106.54-25.35Q107.59-24.35 108.27-23.05 108.94-21.75 109.04-20.35L109.04-20.35Q110.09-22.9 112.17-24.08 114.24-25.25 116.99-25.25L116.99-25.25ZM115.29-1.45Q120.24-1.45 122.89-4.42 125.54-7.4 125.54-12.25L125.54-12.25Q125.54-15.25 124.54-17.78 123.54-20.3 121.62-21.83 119.69-23.35 117.14-23.35L117.14-23.35Q115.19-23.35 113.42-22.48 111.64-21.6 110.44-20.03 109.24-18.45 109.09-16.45L109.09-16.45 109.09-1.95Q114.09-1.45 115.29-1.45L115.29-1.45ZM134.59-11.75Q134.59-8.05 136.41-4.73 138.24-1.4 143.74-1.4L143.74-1.4Q145.79-1.4 147.59-1.98 149.39-2.55 151.64-3.8L151.64-3.8 152.59-2.25Q150.64-0.95 148.29-0.23 145.94 0.5 143.44 0.5L143.44 0.5Q138.24 0.5 135.36-2.8 132.49-6.1 132.49-11.65L132.49-11.65Q132.49-15.6 133.84-18.7 135.19-21.8 137.66-23.53 140.14-25.25 143.49-25.25L143.49-25.25Q146.39-25.25 148.66-23.93 150.94-22.6 152.21-20.28 153.49-17.95 153.49-14.95L153.49-14.95Q153.49-14.05 153.29-11.75L153.29-11.75 134.59-11.75ZM134.69-13.65L151.29-13.65Q151.39-14.2 151.39-15.05L151.39-15.05Q151.39-17.45 150.31-19.38 149.24-21.3 147.44-22.38 145.64-23.45 143.49-23.45L143.49-23.45Q139.99-23.45 137.56-20.75 135.14-18.05 134.69-13.65L134.69-13.65ZM176.74 0.25Q175.64-0.65 175.16-1.63 174.69-2.6 174.14-4.4L174.14-4.4Q172.34 0.45 166.14 0.45L166.14 0.45Q162.14 0.45 159.94-1.55 157.74-3.55 157.74-7.15L157.74-7.15Q157.74-11 160.39-12.95 163.04-14.9 168.19-14.9L168.19-14.9 174.04-14.9 174.04-17.1Q174.04-20.45 172.69-21.98 171.34-23.5 168.24-23.5L168.24-23.5Q166.14-23.5 164.06-22.85 161.99-22.2 160.34-20.95L160.34-20.95 159.34-22.5Q163.09-25.5 168.29-25.5L168.29-25.5Q172.29-25.5 174.21-23.58 176.14-21.65 176.14-17.65L176.14-17.65 176.14-7.05Q176.14-3.15 177.99-1L177.99-1 176.74 0.25ZM166.19-1.45Q169.74-1.45 171.89-3.48 174.04-5.5 174.04-8.75L174.04-8.75 174.04-13 168.44-13Q163.89-13 161.86-11.6 159.84-10.2 159.84-7.2L159.84-7.2Q159.84-4.4 161.54-2.93 163.24-1.45 166.19-1.45L166.19-1.45ZM193.68 0.3Q188.28 0.3 185.26-2.98 182.23-6.25 182.23-12.1L182.23-12.1Q182.23-16.15 183.68-19.18 185.13-22.2 187.83-23.85 190.53-25.5 194.08-25.5L194.08-25.5Q198.08-25.5 200.98-22.75L200.98-22.75 199.63-21.4Q198.43-22.55 197.08-23.08 195.73-23.6 194.08-23.6L194.08-23.6Q191.23-23.6 189.01-22.13 186.78-20.65 185.56-18 184.33-15.35 184.33-11.95L184.33-11.95Q184.33-7.15 186.91-4.38 189.48-1.6 193.93-1.6L193.93-1.6Q195.78-1.6 197.71-2.18 199.63-2.75 201.88-4L201.88-4 202.83-2.45Q200.83-1.15 198.43-0.43 196.03 0.3 193.68 0.3L193.68 0.3ZM208.93-11.75Q208.93-8.05 210.76-4.73 212.58-1.4 218.08-1.4L218.08-1.4Q220.13-1.4 221.93-1.98 223.73-2.55 225.98-3.8L225.98-3.8 226.93-2.25Q224.98-0.95 222.63-0.23 220.28 0.5 217.78 0.5L217.78 0.5Q212.58 0.5 209.71-2.8 206.83-6.1 206.83-11.65L206.83-11.65Q206.83-15.6 208.18-18.7 209.53-21.8 212.01-23.53 214.48-25.25 217.83-25.25L217.83-25.25Q220.73-25.25 223.01-23.93 225.28-22.6 226.56-20.28 227.83-17.95 227.83-14.95L227.83-14.95Q227.83-14.05 227.63-11.75L227.63-11.75 208.93-11.75ZM209.03-13.65L225.63-13.65Q225.73-14.2 225.73-15.05L225.73-15.05Q225.73-17.45 224.66-19.38 223.58-21.3 221.78-22.38 219.98-23.45 217.83-23.45L217.83-23.45Q214.33-23.45 211.91-20.75 209.48-18.05 209.03-13.65L209.03-13.65ZM256.33 0.45Q253.83 0.45 251.43 0.15L251.43 0.15Q249.48-0.15 248.23-0.5L248.23-0.5 248.23-36.35 250.33-36.35 250.33-20.4Q251.48-22.85 253.63-24.05 255.78-25.25 258.43-25.25L258.43-25.25Q261.58-25.25 263.93-23.65 266.28-22.05 267.55-19.13 268.83-16.2 268.83-12.4L268.83-12.4Q268.83-6.7 265.8-3.13 262.78 0.45 256.33 0.45L256.33 0.45ZM256.28-1.45Q261.78-1.45 264.25-4.53 266.73-7.6 266.73-12.35L266.73-12.35Q266.73-15.8 265.6-18.28 264.48-20.75 262.55-22.05 260.63-23.35 258.28-23.35L258.28-23.35Q256.98-23.35 255.65-22.88 254.33-22.4 253.23-21.6L253.23-21.6Q250.58-19.65 250.33-16.45L250.33-16.45 250.33-2 253.33-1.6Q254.28-1.45 256.28-1.45L256.28-1.45ZM275.82-11.75Q275.82-8.05 277.65-4.73 279.47-1.4 284.97-1.4L284.97-1.4Q287.02-1.4 288.82-1.98 290.62-2.55 292.87-3.8L292.87-3.8 293.82-2.25Q291.87-0.95 289.52-0.23 287.17 0.5 284.67 0.5L284.67 0.5Q279.47 0.5 276.6-2.8 273.72-6.1 273.72-11.65L273.72-11.65Q273.72-15.6 275.07-18.7 276.42-21.8 278.9-23.53 281.37-25.25 284.72-25.25L284.72-25.25Q287.62-25.25 289.9-23.93 292.17-22.6 293.45-20.28 294.72-17.95 294.72-14.95L294.72-14.95Q294.72-14.05 294.52-11.75L294.52-11.75 275.82-11.75ZM275.92-13.65L292.52-13.65Q292.62-14.2 292.62-15.05L292.62-15.05Q292.62-17.45 291.55-19.38 290.47-21.3 288.67-22.38 286.87-23.45 284.72-23.45L284.72-23.45Q281.22-23.45 278.8-20.75 276.37-18.05 275.92-13.65L275.92-13.65ZM322.87 0.35Q314.67 0.35 314.67-7.5L314.67-7.5 314.67-25 316.77-25 316.82-8.05Q316.82-4.9 318.37-3.23 319.92-1.55 323.02-1.55L323.02-1.55Q325.77-1.55 327.72-2.93 329.67-4.3 331.67-7.1L331.67-7.1 331.67-25 333.77-25 333.77-7.15Q333.77-3.3 335.67-1.1L335.67-1.1 334.37 0.15Q333.12-0.8 332.47-2.38 331.82-3.95 331.82-5.35L331.82-5.35Q329.97-2.2 327.84-0.93 325.72 0.35 322.87 0.35L322.87 0.35ZM352.22-25.25Q355.67-25.25 358.07-23.55 360.47-21.85 361.67-18.98 362.87-16.1 362.87-12.55L362.87-12.55Q362.87-8.7 361.44-5.78 360.02-2.85 357.29-1.2 354.57 0.45 350.77 0.45L350.77 0.45Q348.77 0.45 344.32-0.15L344.32-0.15 344.32 13 342.22 13 342.22-18.05Q342.22-20.25 341.77-21.53 341.32-22.8 340.37-24L340.37-24 341.77-25.35Q342.82-24.35 343.49-23.05 344.17-21.75 344.27-20.35L344.27-20.35Q345.32-22.9 347.39-24.08 349.47-25.25 352.22-25.25L352.22-25.25ZM350.52-1.45Q355.47-1.45 358.12-4.42 360.77-7.4 360.77-12.25L360.77-12.25Q360.77-15.25 359.77-17.78 358.77-20.3 356.84-21.83 354.92-23.35 352.37-23.35L352.37-23.35Q350.42-23.35 348.64-22.48 346.87-21.6 345.67-20.03 344.47-18.45 344.32-16.45L344.32-16.45 344.32-1.95Q349.32-1.45 350.52-1.45L350.52-1.45ZM379.61 0.45Q376.06 0.45 373.34-1.15 370.61-2.75 369.09-5.65 367.56-8.55 367.56-12.3L367.56-12.3Q367.56-16.1 369.09-19.03 370.61-21.95 373.36-23.6 376.11-25.25 379.66-25.25L379.66-25.25Q383.21-25.25 385.96-23.63 388.71-22 390.24-19.07 391.76-16.15 391.76-12.35L391.76-12.35Q391.76-8.6 390.24-5.68 388.71-2.75 385.96-1.15 383.21 0.45 379.61 0.45L379.61 0.45ZM379.66-1.45Q382.61-1.45 384.89-2.85 387.16-4.25 388.41-6.78 389.66-9.3 389.66-12.55L389.66-12.55Q389.66-15.75 388.41-18.2 387.16-20.65 384.89-22 382.61-23.35 379.66-23.35L379.66-23.35Q376.71-23.35 374.44-21.98 372.16-20.6 370.91-18.1 369.66-15.6 369.66-12.35L369.66-12.35Q369.66-9.15 370.91-6.68 372.16-4.2 374.44-2.83 376.71-1.45 379.66-1.45L379.66-1.45ZM398.01-17.7Q398.01-21.5 396.11-23.75L396.11-23.75 397.36-25Q399.66-23.25 399.91-19.75L399.91-19.75Q401.66-22.6 403.79-23.93 405.91-25.25 409.06-25.25L409.06-25.25Q412.91-25.25 414.96-23.28 417.01-21.3 416.96-17.4L416.96-17.4 416.81-0.05 414.81-0.05 414.86-16.85Q414.86-23.35 408.81-23.35L408.81-23.35Q406.06-23.35 404.09-22.03 402.11-20.7 400.11-17.9L400.11-17.9 400.11-0.05 398.01-0.05 398.01-17.7ZM437.61 11.45Q440.36 11.35 441.76 10.35L441.76 10.35Q442.46 9.8 443.11 8.93 443.76 8.05 444.06 7.15L444.06 7.15 446.01 0.95 435.21-25 437.41-25 446.96-1.8 454.01-25 456.21-25 446.01 7.85Q445.16 10.45 443.16 11.85L443.16 11.85Q441.16 13.2 437.91 13.25L437.91 13.25 437.61 11.45ZM471.85 0.45Q468.3 0.45 465.58-1.15 462.85-2.75 461.33-5.65 459.8-8.55 459.8-12.3L459.8-12.3Q459.8-16.1 461.33-19.03 462.85-21.95 465.6-23.6 468.35-25.25 471.9-25.25L471.9-25.25Q475.45-25.25 478.2-23.63 480.95-22 482.48-19.07 484-16.15 484-12.35L484-12.35Q484-8.6 482.48-5.68 480.95-2.75 478.2-1.15 475.45 0.45 471.85 0.45L471.85 0.45ZM471.9-1.45Q474.85-1.45 477.13-2.85 479.4-4.25 480.65-6.78 481.9-9.3 481.9-12.55L481.9-12.55Q481.9-15.75 480.65-18.2 479.4-20.65 477.13-22 474.85-23.35 471.9-23.35L471.9-23.35Q468.95-23.35 466.68-21.98 464.4-20.6 463.15-18.1 461.9-15.6 461.9-12.35L461.9-12.35Q461.9-9.15 463.15-6.68 464.4-4.2 466.68-2.83 468.95-1.45 471.9-1.45L471.9-1.45ZM498.2 0.35Q490 0.35 490-7.5L490-7.5 490-25 492.1-25 492.15-8.05Q492.15-4.9 493.7-3.23 495.25-1.55 498.35-1.55L498.35-1.55Q501.1-1.55 503.05-2.93 505-4.3 507-7.1L507-7.1 507-25 509.1-25 509.1-7.15Q509.1-3.3 511-1.1L511-1.1 509.7 0.15Q508.45-0.8 507.8-2.38 507.15-3.95 507.15-5.35L507.15-5.35Q505.3-2.2 503.18-0.93 501.05 0.35 498.2 0.35L498.2 0.35Z" opacity="1" transform="matrix(1,0,0,1,0,0)" fill="#000000" class="undefined-text-1" data-fill-palette-color="secondary" id="text-1"></path></svg></g></svg></g></svg></g></svg></g><g><svg viewBox="0 0 111.44355455431396 111.44355455431396" height="111.44355455431396" width="111.44355455431396"><g><svg viewBox="0 0 111.44355455431396 111.44355455431396" height="111.44355455431396" width="111.44355455431396"><g transform="matrix(1,0,0,1,30.38099688157808,29.4542795621942)"><svg viewBox="0 0 50.6815607911578 52.534995429925566" height="52.534995429925566" width="50.6815607911578"><g><svg xmlns="http://www.w3.org/2000/svg" xmlns:xlink="http://www.w3.org/1999/xlink" version="1.1" x="0" y="0" viewBox="1.764 0 96.47200000000001 100" enable-background="new 0 0 100 100" xml:space="preserve" height="52.534995429925566" width="50.6815607911578" class="icon-_$-0" data-fill-palette-color="accent" id="_$-0"><path d="M81.035 72.347c-21.776 0-39.429-17.65-39.429-39.429 0-13.43 6.729-25.273 16.989-32.399C56.355 0.215 54.085 0 51.761 0 24.149 0 1.764 22.387 1.764 50s22.385 50 49.997 50c21.125 0 39.15-13.123 46.475-31.639C93.033 70.89 87.209 72.347 81.035 72.347z" fill="#000000" data-fill-palette-color="accent"></path><path d="M86.217 35.946c0 0-1.015 6.772-2.45 8.317-1.641 1.757-8.589 2.721-8.589 2.721s6.811 1.106 8.407 2.71c1.601 1.596 2.632 8.32 2.632 8.32s1.039-6.622 2.635-8.233c1.617-1.639 8.397-2.797 8.397-2.797s-6.78-1.118-8.397-2.809C87.334 42.594 86.217 35.946 86.217 35.946z" fill="#000000" data-fill-palette-color="accent"></path><path d="M61.799 22.36c0 0-0.591 3.952-1.43 4.856-0.957 1.023-5.013 1.586-5.013 1.586s3.976 0.649 4.908 1.583c0.935 0.931 1.535 4.856 1.535 4.856s0.607-3.865 1.537-4.805c0.942-0.957 4.9-1.634 4.9-1.634s-3.958-0.651-4.9-1.638C62.452 26.242 61.799 22.36 61.799 22.36z" fill="#000000" data-fill-palette-color="accent"></path></svg></g></svg></g><g><path d="M7.732 70.959V70.959C7.61 71.001 7.515 71.07 7.446 71.165 7.378 71.26 7.333 71.34 7.312 71.404V71.404C7.279 71.538 7.248 71.703 7.222 71.899V71.899C7.188 72.011 7.152 72.041 7.112 71.99V71.99C7.106 71.971 7.104 71.943 7.105 71.906V71.906C7.076 71.715 7.12 71.484 7.237 71.214 7.347 70.947 7.52 70.769 7.757 70.682V70.682C7.832 70.627 7.898 70.59 7.956 70.571V70.571C8.285 70.459 8.618 70.5 8.958 70.694V70.694C9.562 71.056 10.054 71.794 10.434 72.909V72.909C10.466 72.898 10.508 72.894 10.56 72.898V72.898C10.654 72.881 10.74 72.984 10.816 73.21V73.21C10.88 73.397 10.866 73.502 10.773 73.527V73.527C10.704 73.514 10.649 73.511 10.609 73.518V73.518C10.743 74.019 10.782 74.462 10.726 74.847V74.847C10.71 74.968 10.672 75.067 10.612 75.145 10.55 75.216 10.503 75.258 10.471 75.269V75.269C10.406 75.291 10.372 75.148 10.368 74.84 10.37 74.53 10.275 74.091 10.082 73.524V73.524C9.908 73.541 9.46 73.545 8.739 73.539 8.018 73.533 7.567 73.528 7.387 73.525 7.21 73.513 6.966 73.503 6.654 73.494 6.339 73.479 6.081 73.459 5.878 73.434 5.67 73.412 5.437 73.383 5.181 73.348V73.348C4.746 73.295 4.321 73.198 3.907 73.059V73.059C3.624 72.947 3.427 72.852 3.314 72.775V72.775C3.358 72.904 3.444 73.155 3.571 73.529 3.698 73.903 3.819 74.228 3.935 74.505 4.051 74.782 4.104 74.937 4.093 74.969 4.076 75.003 4.047 75.013 4.006 74.999V74.999C3.92 74.978 3.841 74.936 3.77 74.874 3.707 74.816 3.482 74.271 3.094 73.238 2.707 72.205 2.47 71.56 2.382 71.302 2.292 71.038 2.228 70.851 2.191 70.742V70.742C2.136 70.559 2.173 70.446 2.302 70.402V70.402C2.373 70.378 2.478 70.371 2.618 70.381V70.381C2.758 70.391 2.871 70.468 2.956 70.611 3.047 70.753 3.062 70.902 3 71.06V71.06C2.903 71.323 2.888 71.554 2.956 71.754 3.024 71.954 3.132 72.144 3.279 72.323 3.429 72.51 3.675 72.663 4.018 72.784V72.784C5.051 73.115 7.005 73.173 9.879 72.957V72.957C9.582 72.275 9.242 71.74 8.858 71.353 8.475 70.966 8.1 70.835 7.732 70.959ZM4.979 78.213V78.213C4.825 78.173 4.73 78.196 4.695 78.28 4.65 78.361 4.645 78.439 4.68 78.513 4.712 78.58 4.758 78.645 4.818 78.708V78.708C5.058 78.978 5.389 79.19 5.809 79.346 6.225 79.51 6.578 79.524 6.867 79.387V79.387C7.027 79.311 7.118 79.05 7.14 78.603V78.603C7.147 78.396 7.156 78.279 7.166 78.252V78.252C7.202 77.994 7.271 77.806 7.374 77.69V77.69C7.155 77.673 6.829 77.628 6.395 77.554V77.554C6.311 77.534 6.273 77.496 6.284 77.438 6.3 77.377 6.345 77.352 6.418 77.363V77.363C6.964 77.466 7.398 77.502 7.722 77.469V77.469C8.145 77.329 8.641 77.448 9.212 77.826 9.782 78.203 10.17 78.611 10.377 79.047V79.047C10.508 79.324 10.55 79.541 10.504 79.699 10.461 79.862 10.394 79.966 10.301 80.009 10.209 80.053 10.088 80.076 9.939 80.079 9.79 80.082 9.621 80.026 9.431 79.913V79.913C9.38 79.884 9.369 79.844 9.397 79.793V79.793C9.435 79.761 9.511 79.762 9.626 79.798 9.737 79.843 9.862 79.844 10 79.802 10.147 79.762 10.199 79.666 10.157 79.513V79.513C10.148 79.494 10.138 79.473 10.126 79.448V79.448C9.992 79.165 9.72 78.861 9.31 78.536 8.9 78.21 8.469 78.007 8.018 77.928V77.928C7.848 77.887 7.702 77.896 7.579 77.955 7.449 78.016 7.375 78.16 7.355 78.388V78.388C7.346 78.482 7.337 78.637 7.326 78.853 7.315 79.069 7.306 79.224 7.298 79.318 7.284 79.416 7.254 79.535 7.208 79.677 7.165 79.826 7.105 79.922 7.028 79.966V79.966C6.824 80.107 6.536 80.119 6.164 80.002V80.002C5.623 79.844 5.115 79.463 4.641 78.859V78.859C4.537 78.72 4.448 78.57 4.372 78.41 4.299 78.256 4.305 78.126 4.39 78.018V78.018C4.409 77.979 4.449 77.945 4.511 77.915 4.572 77.886 4.701 77.897 4.898 77.947V77.947C5.055 78.008 5.243 78.134 5.461 78.324V78.324C5.476 78.34 5.481 78.36 5.478 78.384 5.465 78.405 5.448 78.417 5.427 78.419 5.399 78.425 5.356 78.397 5.296 78.334 5.233 78.281 5.128 78.241 4.979 78.213ZM15.232 83.819V83.819C15.436 83.812 15.579 83.783 15.66 83.733V83.733C15.804 83.643 15.839 83.537 15.763 83.416V83.416C15.706 83.324 15.577 83.239 15.377 83.163V83.163C14.612 82.886 13.612 82.775 12.379 82.829V82.829C11.39 82.875 10.573 82.967 9.929 83.104V83.104C10.538 83.374 11.385 83.576 12.471 83.71 13.566 83.846 14.486 83.882 15.232 83.819ZM9.416 83.207V83.207C9.134 83.27 8.951 83.323 8.867 83.368 8.788 83.409 8.682 83.471 8.549 83.554 8.417 83.636 8.315 83.744 8.245 83.875V83.875C8.135 84.112 8.243 84.317 8.568 84.492V84.492C8.804 84.626 9.165 84.762 9.652 84.9 10.141 85.028 10.558 85.105 10.902 85.131V85.131C10.927 85.132 10.948 85.147 10.966 85.176V85.176C11.002 85.233 10.97 85.278 10.869 85.309V85.309C10.619 85.32 10.266 85.275 9.81 85.174 9.349 85.076 8.964 84.967 8.656 84.846 8.349 84.725 8.125 84.552 7.984 84.326V84.326C7.661 83.806 7.75 83.39 8.253 83.077V83.077C8.276 83.062 8.299 83.048 8.322 83.034V83.034C8.814 82.768 9.684 82.563 10.933 82.418 12.188 82.271 13.176 82.229 13.897 82.293V82.293L14.496 82.365C14.629 82.386 14.807 82.428 15.03 82.489V82.489C15.459 82.599 15.764 82.798 15.943 83.087 16.123 83.376 16.156 83.628 16.042 83.844V83.844C16 83.918 15.921 83.991 15.805 84.063 15.69 84.135 15.493 84.186 15.214 84.215V84.215C13.56 84.275 11.627 83.939 9.416 83.207ZM10.97 88.592V88.592C10.89 88.49 10.835 88.36 10.806 88.201 10.772 88.037 10.778 87.868 10.823 87.695 10.872 87.526 10.958 87.393 11.081 87.297 11.21 87.196 11.353 87.13 11.512 87.101V87.101C11.876 87.014 12.295 87.013 12.77 87.099 13.235 87.184 13.675 87.309 14.092 87.475 14.513 87.637 14.815 87.79 14.996 87.933 15.178 88.075 15.334 88.23 15.464 88.396 15.599 88.567 15.67 88.745 15.677 88.93 15.688 89.12 15.645 89.253 15.549 89.329V89.329C15.522 89.35 15.499 89.36 15.48 89.357 15.471 89.356 15.465 89.339 15.465 89.304V89.304C15.519 89.132 15.454 88.928 15.269 88.692 15.084 88.457 14.796 88.25 14.405 88.073 14.01 87.89 13.592 87.76 13.151 87.682V87.682C12.765 87.622 12.376 87.612 11.984 87.652 11.591 87.692 11.336 87.758 11.218 87.851V87.851C10.983 88.036 10.918 88.195 11.023 88.329 11.124 88.458 11.389 88.574 11.817 88.679V88.679C12.55 88.83 13.071 88.918 13.377 88.946V88.946C14.462 89.037 15.021 89.104 15.055 89.146V89.146C15.114 89.221 15.164 89.329 15.205 89.47 15.246 89.61 15.22 89.687 15.126 89.7V89.7C14.419 89.737 13.813 89.906 13.306 90.209V90.209C13.243 90.25 13.166 90.306 13.075 90.378 12.99 90.445 12.938 90.529 12.922 90.629V90.629C12.891 90.799 12.987 90.932 13.208 91.026 13.424 91.125 13.782 91.216 14.281 91.3 14.779 91.384 15.224 91.416 15.614 91.394V91.394C15.663 91.391 15.692 91.411 15.702 91.456 15.711 91.5 15.71 91.527 15.699 91.535V91.535C15.603 91.611 15.276 91.625 14.72 91.578 14.163 91.531 13.766 91.471 13.527 91.399V91.399C13.076 91.277 12.752 91.091 12.555 90.839V90.839C12.365 90.598 12.357 90.34 12.531 90.066V90.066C12.593 89.991 12.672 89.915 12.769 89.84V89.84C13.052 89.617 13.398 89.44 13.806 89.31V89.31C13.779 89.297 13.563 89.28 13.158 89.261 12.753 89.242 12.329 89.181 11.886 89.08 11.452 88.979 11.146 88.817 10.97 88.592ZM19.233 93.098V93.098C19.196 93.139 19.08 93.199 18.886 93.279 18.692 93.36 18.067 93.668 17.011 94.205V94.205C17.461 94.137 18.008 94.08 18.651 94.034V94.034C19.938 93.95 20.707 94.023 20.958 94.253V94.253C21.013 94.304 21.052 94.367 21.075 94.443 21.097 94.52 21.06 94.61 20.963 94.716 20.871 94.816 20.733 94.901 20.548 94.972 20.368 95.037 20.15 95.123 19.894 95.231 19.648 95.337 19.487 95.402 19.411 95.425V95.425C20.322 95.429 20.951 95.499 21.299 95.633 21.642 95.773 21.853 95.879 21.934 95.953 22.019 96.031 22.034 96.101 21.979 96.161V96.161C21.946 96.196 21.823 96.24 21.608 96.292 21.394 96.345 21.112 96.455 20.763 96.624 20.409 96.798 20.176 96.931 20.064 97.023 19.958 97.119 19.865 97.209 19.787 97.294 19.713 97.375 19.674 97.463 19.668 97.56V97.56C19.671 97.738 19.789 97.855 20.023 97.913 20.252 97.975 20.619 98.008 21.125 98.011 21.626 98.009 22.07 97.968 22.457 97.889V97.889C22.504 97.877 22.539 97.895 22.56 97.942 22.576 97.985 22.578 98.014 22.564 98.029 22.55 98.044 22.529 98.057 22.5 98.068V98.068C22.267 98.14 21.921 98.196 21.46 98.235V98.235C20.701 98.296 20.153 98.259 19.815 98.124V98.124C19.451 97.957 19.239 97.78 19.178 97.595 19.123 97.414 19.121 97.265 19.174 97.147 19.222 97.034 19.287 96.933 19.37 96.843V96.843C19.628 96.562 19.939 96.334 20.302 96.16 20.665 95.976 20.925 95.864 21.083 95.823V95.823C20.775 95.716 20.476 95.659 20.187 95.652V95.652C19.743 95.642 19.375 95.65 19.082 95.677V95.677L18.722 95.707C18.548 95.787 18.388 95.774 18.244 95.669 18.09 95.565 18.064 95.463 18.166 95.362V95.362C18.287 95.261 18.629 95.109 19.194 94.906 19.759 94.704 20.062 94.58 20.103 94.535 20.14 94.495 20.136 94.455 20.091 94.413V94.413C19.985 94.316 19.682 94.259 19.18 94.242V94.242C18.843 94.247 18.276 94.322 17.477 94.466 16.68 94.621 16.244 94.688 16.171 94.667V94.667C15.859 94.583 15.676 94.517 15.62 94.466 15.565 94.415 15.547 94.38 15.565 94.36 15.579 94.345 15.612 94.329 15.665 94.312 15.716 94.286 16.371 93.936 17.628 93.261V93.261C17.314 93.341 17.056 93.386 16.854 93.395V93.395C16.753 93.404 16.737 93.371 16.806 93.296 16.875 93.22 16.953 93.176 17.039 93.163V93.163C17.632 93.061 18.099 92.944 18.44 92.814V92.814C18.674 92.641 18.859 92.584 18.997 92.646V92.646C19.085 92.681 19.16 92.75 19.222 92.853 19.284 92.957 19.288 93.038 19.233 93.098ZM26.073 98.609V98.609C26.236 98.721 26.297 98.842 26.257 98.972V98.972C26.235 99.039 26.187 99.089 26.115 99.122 26.048 99.159 25.998 99.19 25.963 99.216 25.923 99.237 25.893 99.258 25.871 99.276V99.276C25.795 99.314 25.719 99.353 25.643 99.391V99.391C24.745 99.886 24.215 100.227 24.053 100.413V100.413C24.004 100.47 23.947 100.547 23.881 100.642 23.819 100.731 23.795 100.826 23.808 100.926V100.926C23.824 101.095 23.952 101.191 24.191 101.217 24.426 101.247 24.792 101.227 25.288 101.157 25.789 101.091 26.229 100.994 26.607 100.867V100.867C26.653 100.849 26.687 100.86 26.708 100.9 26.73 100.94 26.736 100.968 26.724 100.985 26.712 101.002 26.693 101.018 26.666 101.032V101.032C26.446 101.136 26.11 101.238 25.658 101.34V101.34C24.915 101.503 24.367 101.542 24.014 101.454V101.454C23.807 101.394 23.648 101.325 23.536 101.247V101.247C23.273 101.065 23.184 100.817 23.269 100.503V100.503C23.289 100.451 23.322 100.391 23.369 100.324V100.324C23.528 100.094 23.876 99.818 24.415 99.496V99.496C24.331 99.545 24.088 99.621 23.686 99.723V99.723C23.578 99.748 23.53 99.715 23.543 99.625V99.625C23.545 99.609 23.554 99.591 23.57 99.568 23.589 99.54 23.624 99.519 23.675 99.505V99.505C24.279 99.327 24.768 99.165 25.143 99.019V99.019C25.149 98.974 25.186 98.933 25.253 98.897V98.897C25.643 98.621 25.891 98.507 25.998 98.556V98.556C26.02 98.572 26.045 98.589 26.073 98.609ZM27.773 97.824V97.824L27.476 98.091C27.433 98.152 27.321 98.219 27.138 98.291 26.965 98.362 26.856 98.381 26.812 98.35V98.35C26.526 98.153 26.432 97.984 26.529 97.844V97.844C26.545 97.822 26.771 97.8 27.207 97.78V97.78L27.468 97.762C27.636 97.746 27.732 97.746 27.754 97.761 27.782 97.781 27.788 97.802 27.773 97.824ZM31.54 102.7V102.7L31.712 102.514C31.787 102.377 31.771 102.279 31.664 102.22V102.22C31.378 102.063 30.861 102.07 30.114 102.242 29.364 102.419 28.794 102.7 28.405 103.084V103.084C28.303 103.183 28.226 103.281 28.174 103.376 28.121 103.472 28.103 103.562 28.117 103.648V103.648C28.129 103.825 28.221 103.961 28.394 104.057 28.573 104.155 28.778 104.233 29.011 104.291V104.291C29.533 104.415 30.007 104.443 30.433 104.374 30.862 104.299 31.36 104.142 31.927 103.903V103.903C31.971 103.88 32.008 103.889 32.04 103.93 32.069 103.962 32.078 103.989 32.064 104.013 32.051 104.037 32.023 104.068 31.979 104.106V104.106C31.386 104.378 30.826 104.555 30.299 104.638 29.772 104.721 29.244 104.672 28.715 104.489V104.489C28.559 104.435 28.421 104.374 28.302 104.309V104.309C27.956 104.119 27.741 103.888 27.657 103.616 27.57 103.351 27.582 103.117 27.694 102.914 27.809 102.705 27.979 102.508 28.206 102.322V102.322C28.605 102.021 29.21 101.818 30.021 101.712 30.832 101.607 31.405 101.646 31.739 101.83V101.83C31.822 101.876 31.896 101.932 31.961 101.999V101.999C32.127 102.176 32.168 102.342 32.083 102.497V102.497C32.024 102.604 31.918 102.705 31.765 102.8 31.615 102.888 31.529 102.903 31.507 102.844 31.494 102.783 31.505 102.735 31.54 102.699ZM39.568 104.861V104.861L39.585 104.665C39.719 104.116 40.078 103.686 40.659 103.373V103.373C41.697 102.829 43.187 102.698 45.129 102.979V102.979C45.425 103.031 45.768 103.104 46.158 103.2 46.541 103.295 47.016 103.471 47.583 103.729 48.151 103.988 48.589 104.316 48.897 104.715V104.715C49.382 105.366 49.525 106.095 49.327 106.902 49.129 107.708 48.704 108.396 48.052 108.964 47.403 109.527 46.661 109.905 45.828 110.1 44.996 110.295 44.156 110.288 43.31 110.08 42.471 109.874 41.84 109.505 41.417 108.973V108.973C41.4 108.983 41.343 109.043 41.247 109.152 41.151 109.255 41.056 109.358 40.961 109.46V109.46C40.457 109.939 40.117 109.94 39.94 109.462V109.462C39.835 109.177 39.824 108.866 39.907 108.529 39.988 108.198 40.124 107.801 40.316 107.336V107.336C40.334 107.291 40.328 107.174 40.297 106.985V106.985C40.295 106.907 40.34 106.837 40.432 106.776V106.776C40.51 106.746 40.609 106.728 40.729 106.723 40.85 106.717 40.929 106.737 40.967 106.781 40.999 106.824 40.969 106.904 40.877 107.022 40.776 107.144 40.712 107.265 40.682 107.384 40.655 107.497 40.735 107.698 40.923 107.99 41.104 108.28 41.221 108.442 41.276 108.476V108.476C41.575 108.059 42.184 107.291 43.104 106.171V106.171C43.211 106.05 43.273 105.954 43.291 105.881 43.307 105.815 43.314 105.76 43.31 105.717V105.717C43.399 105.501 43.735 105.201 44.319 104.819 44.896 104.442 45.323 104.288 45.6 104.356V104.356C45.713 104.384 45.842 104.454 45.99 104.568 46.13 104.679 46.198 104.805 46.192 104.943V104.943C46.18 104.99 46.171 105.015 46.162 105.02 46.154 105.025 46.136 105.014 46.108 104.986 46.078 104.964 46.056 104.952 46.043 104.949V104.949C45.792 104.887 45.453 104.997 45.027 105.277 44.594 105.556 44.137 105.945 43.657 106.444V106.444C42.819 107.317 42.122 108.099 41.567 108.79V108.79C41.963 109.258 42.449 109.564 43.024 109.705V109.705C43.764 109.887 44.522 109.87 45.297 109.654 46.07 109.444 46.723 109.139 47.257 108.737V108.737C48.132 108.083 48.668 107.357 48.865 106.557V106.557C49.008 105.975 48.905 105.396 48.556 104.82 48.2 104.242 47.524 103.816 46.525 103.543V103.543C46.479 103.532 46.433 103.52 46.387 103.509V103.509C45.587 103.312 44.716 103.235 43.774 103.277 42.823 103.323 41.974 103.511 41.228 103.839 40.488 104.169 40.054 104.595 39.926 105.117V105.117C39.893 105.249 39.904 105.378 39.957 105.503 40.018 105.623 40.087 105.714 40.164 105.774 40.246 105.837 40.351 105.908 40.479 105.989 40.6 106.067 40.681 106.122 40.722 106.153 40.757 106.183 40.774 106.212 40.774 106.24V106.24C40.78 106.304 40.719 106.321 40.594 106.29V106.29C40.308 106.199 40.043 106.022 39.799 105.758 39.556 105.495 39.466 105.235 39.529 104.977V104.977C39.539 104.937 39.552 104.899 39.568 104.861ZM40.513 107.816V107.816C40.255 108.866 40.202 109.411 40.354 109.448V109.448C40.46 109.474 40.682 109.238 41.022 108.74V108.74C41.04 108.723 41.05 108.711 41.052 108.705V108.705C41.01 108.646 40.923 108.502 40.79 108.273 40.664 108.045 40.571 107.893 40.513 107.816ZM51.787 111.205V111.205C51.658 111.2 51.523 111.158 51.383 111.078 51.236 110.998 51.111 110.885 51.007 110.738 50.91 110.592 50.864 110.44 50.869 110.284 50.875 110.121 50.918 109.969 50.998 109.829V109.829C51.166 109.494 51.436 109.173 51.807 108.866 52.172 108.565 52.552 108.31 52.948 108.099 53.343 107.881 53.654 107.749 53.881 107.702 54.107 107.656 54.326 107.636 54.537 107.643 54.754 107.651 54.936 107.712 55.082 107.826 55.234 107.94 55.309 108.058 55.304 108.181V108.181C55.303 108.215 55.296 108.238 55.281 108.251 55.274 108.258 55.258 108.251 55.231 108.229V108.229C55.134 108.076 54.936 107.994 54.637 107.984 54.338 107.973 53.994 108.06 53.606 108.244 53.212 108.428 52.843 108.664 52.499 108.951V108.951C52.204 109.207 51.946 109.497 51.723 109.823 51.501 110.149 51.387 110.387 51.382 110.537V110.537C51.371 110.836 51.451 110.989 51.621 110.995 51.784 111 52.044 110.873 52.4 110.613V110.613C52.989 110.15 53.392 109.81 53.611 109.593V109.593C54.38 108.823 54.791 108.439 54.846 108.441V108.441C54.941 108.444 55.056 108.475 55.19 108.534 55.324 108.593 55.366 108.663 55.315 108.743V108.743C54.887 109.307 54.626 109.88 54.53 110.462V110.462C54.521 110.537 54.514 110.632 54.51 110.748 54.507 110.857 54.537 110.95 54.603 111.027V111.027C54.714 111.16 54.877 111.172 55.092 111.064 55.306 110.963 55.607 110.748 55.993 110.421 56.379 110.094 56.689 109.775 56.925 109.463V109.463C56.953 109.423 56.988 109.414 57.028 109.436 57.068 109.458 57.088 109.475 57.087 109.489V109.489C57.083 109.611 56.883 109.87 56.488 110.265 56.093 110.66 55.791 110.925 55.582 111.061V111.061C55.198 111.327 54.847 111.454 54.527 111.443V111.443C54.221 111.432 54.019 111.272 53.921 110.962V110.962C53.904 110.866 53.897 110.757 53.901 110.635V110.635C53.914 110.274 54.002 109.896 54.166 109.5V109.5C54.138 109.512 53.986 109.667 53.71 109.964 53.434 110.261 53.114 110.546 52.751 110.819 52.394 111.086 52.073 111.215 51.787 111.205ZM60.853 107.905C60.749 108.013 60.565 108.285 60.302 108.721 60.045 109.162 59.875 109.546 59.79 109.871 59.712 110.195 59.685 110.459 59.709 110.662 59.732 110.858 59.831 110.945 60.007 110.925 60.176 110.905 60.402 110.755 60.684 110.474V110.474C61.141 109.996 61.618 109.158 62.114 107.962V107.962C62.14 107.897 62.194 107.86 62.275 107.85 62.363 107.84 62.481 107.85 62.628 107.88 62.782 107.903 62.863 107.952 62.872 108.026V108.026C62.875 108.053 62.871 108.078 62.86 108.1V108.1C62.586 108.68 62.446 109.32 62.439 110.02V110.02C62.439 110.253 62.502 110.438 62.628 110.574V110.574C62.746 110.704 62.957 110.661 63.261 110.447V110.447C63.725 110.139 64.131 109.697 64.481 109.121 64.831 108.545 65.029 108.042 65.074 107.612V107.612C65.097 107.52 65.103 107.42 65.09 107.312V107.312C65.037 106.866 64.877 106.61 64.609 106.546V106.546C64.53 106.521 64.448 106.521 64.362 106.545 64.276 106.568 64.225 106.571 64.209 106.552 64.186 106.535 64.18 106.511 64.19 106.483V106.483C64.196 106.413 64.354 106.36 64.665 106.324V106.324C65.185 106.262 65.477 106.498 65.54 107.032 65.603 107.566 65.375 108.244 64.855 109.066V109.066C64.524 109.565 64.124 110.037 63.656 110.483V110.483C63.389 110.72 63.1 110.857 62.789 110.894V110.894C62.384 110.942 62.112 110.82 61.975 110.527V110.527C61.904 110.392 61.85 110.165 61.812 109.848 61.776 109.537 61.786 109.279 61.844 109.073V109.073C61.679 109.531 61.485 109.921 61.263 110.242 61.041 110.569 60.849 110.798 60.686 110.927 60.516 111.056 60.34 111.132 60.157 111.154V111.154C59.84 111.191 59.607 111.133 59.458 110.979 59.309 110.819 59.223 110.64 59.2 110.444V110.444C59.169 110.181 59.192 109.887 59.27 109.562 59.349 109.244 59.435 108.988 59.529 108.792 59.629 108.595 59.755 108.36 59.908 108.089 60.068 107.816 60.173 107.663 60.224 107.63V107.63C60.342 107.589 60.456 107.561 60.564 107.549 60.672 107.536 60.768 107.538 60.853 107.556 60.938 107.58 60.983 107.616 60.989 107.663 61.001 107.709 60.956 107.79 60.853 107.905ZM69.197 109.681V109.681C69.072 109.717 68.931 109.719 68.773 109.687 68.609 109.657 68.454 109.588 68.31 109.481 68.172 109.372 68.081 109.243 68.038 109.092 67.992 108.935 67.985 108.778 68.018 108.62V108.62C68.073 108.249 68.23 107.86 68.487 107.453 68.74 107.054 69.021 106.692 69.332 106.368 69.64 106.038 69.894 105.816 70.095 105.701 70.295 105.586 70.497 105.499 70.7 105.441 70.909 105.38 71.1 105.381 71.275 105.444 71.455 105.505 71.563 105.594 71.597 105.712V105.712C71.606 105.745 71.606 105.77 71.597 105.786 71.592 105.795 71.574 105.793 71.542 105.781V105.781C71.403 105.666 71.189 105.65 70.901 105.733 70.614 105.816 70.314 106.006 70.003 106.301 69.685 106.599 69.408 106.938 69.171 107.318V107.318C68.97 107.653 68.815 108.01 68.705 108.389 68.595 108.768 68.561 109.029 68.603 109.173V109.173C68.686 109.461 68.81 109.581 68.973 109.533 69.13 109.488 69.337 109.286 69.595 108.928V108.928C70.01 108.305 70.287 107.856 70.427 107.582V107.582C70.918 106.61 71.19 106.117 71.242 106.102V106.102C71.333 106.075 71.452 106.069 71.598 106.084 71.744 106.098 71.805 106.151 71.782 106.243V106.243C71.551 106.912 71.481 107.538 71.572 108.121V108.121C71.586 108.195 71.61 108.288 71.642 108.399 71.672 108.503 71.73 108.582 71.816 108.635V108.635C71.964 108.727 72.122 108.688 72.293 108.518 72.465 108.355 72.684 108.058 72.949 107.627 73.213 107.196 73.409 106.795 73.536 106.426V106.426C73.551 106.379 73.581 106.36 73.625 106.368 73.67 106.376 73.695 106.387 73.698 106.4V106.4C73.733 106.518 73.623 106.826 73.371 107.324 73.118 107.822 72.914 108.168 72.758 108.362V108.362C72.476 108.735 72.181 108.965 71.874 109.054V109.054C71.58 109.139 71.338 109.05 71.148 108.786V108.786C71.102 108.7 71.062 108.599 71.028 108.481V108.481C70.927 108.135 70.893 107.748 70.925 107.32V107.32C70.903 107.341 70.807 107.535 70.637 107.903 70.467 108.271 70.252 108.642 69.992 109.015 69.736 109.38 69.471 109.602 69.197 109.681ZM77.197 99.11V99.11C77.301 98.995 77.4 98.916 77.493 98.874V98.874C77.815 98.728 78.07 98.72 78.257 98.852V98.852C78.352 98.913 78.415 98.978 78.446 99.046V99.046C78.672 99.542 78.542 100.356 78.056 101.49V101.49C77.608 102.478 77.181 103.346 76.773 104.093V104.093C76.78 104.65 76.826 105.317 76.91 106.094V106.094C77.03 105.651 77.194 105.124 77.402 104.513V104.513C77.83 103.301 78.205 102.622 78.527 102.475V102.475C78.688 102.402 78.808 102.444 78.888 102.603V102.603C78.976 102.764 79.015 102.941 79.005 103.132 78.989 103.327 78.973 103.506 78.958 103.67V103.67C78.877 104.395 78.939 104.983 79.145 105.435V105.435C79.21 105.578 79.286 105.671 79.373 105.713V105.713C79.531 105.783 79.683 105.722 79.827 105.529 79.968 105.345 80.138 105.021 80.338 104.556 80.537 104.091 80.676 103.665 80.754 103.278V103.278C80.774 103.224 80.807 103.198 80.853 103.2 80.892 103.204 80.916 103.216 80.925 103.234 80.933 103.253 80.937 103.277 80.936 103.308V103.308C80.912 103.551 80.828 103.892 80.684 104.331 80.537 104.764 80.404 105.087 80.283 105.299V105.299C80.064 105.705 79.8 105.979 79.49 106.12V106.12C79.218 106.244 78.968 106.189 78.742 105.955V105.955C78.696 105.902 78.651 105.829 78.609 105.736 78.567 105.643 78.529 105.544 78.496 105.439V105.439C78.392 105.113 78.369 104.544 78.426 103.733V103.733C78.432 103.565 78.424 103.457 78.401 103.407 78.376 103.352 78.335 103.336 78.28 103.362V103.362C78.162 103.415 78.002 103.664 77.8 104.107V104.107C77.667 104.422 77.514 104.974 77.342 105.763 77.167 106.56 77.059 106.987 77.017 107.044V107.044C76.813 107.301 76.68 107.444 76.618 107.472 76.556 107.5 76.517 107.507 76.503 107.491 76.488 107.475 76.48 107.449 76.478 107.412 76.476 107.376 76.462 107.188 76.435 106.849V106.849C76.333 105.721 76.275 104.97 76.261 104.595V104.595C76.161 105.014 76.018 105.498 75.834 106.046V106.046C75.8 106.136 75.763 106.137 75.724 106.051 75.687 105.97 75.682 105.868 75.708 105.744 75.73 105.629 75.79 105.4 75.888 105.056 75.983 104.706 76.046 104.45 76.076 104.286V104.286C75.991 104.28 75.933 104.243 75.902 104.175 75.865 104.11 75.865 104.053 75.903 104.006 75.942 103.959 76.023 103.933 76.148 103.928V103.928C76.178 103.795 76.195 103.653 76.2 103.501V103.501C76.213 101.229 76.545 99.766 77.197 99.11ZM78.182 99.649V99.649C78.196 99.433 78.175 99.263 78.118 99.139 78.065 99.021 77.985 98.987 77.88 99.034 77.775 99.082 77.665 99.211 77.551 99.42V99.42C77.028 100.406 76.765 101.767 76.762 103.503V103.503C77.101 102.982 77.414 102.346 77.7 101.595 77.986 100.844 78.147 100.195 78.182 99.649ZM89.029 92.181V92.181C88.747 91.832 88.423 91.804 88.058 92.099V92.099C87.734 92.36 87.44 92.846 87.175 93.558 86.91 94.27 86.755 95.151 86.71 96.202 86.67 97.248 86.815 98.197 87.145 99.051V99.051C87.278 99.389 87.436 99.672 87.62 99.9 87.804 100.128 88.03 100.273 88.299 100.336V100.336C88.771 100.454 89.273 100.303 89.807 99.881V99.881C89.844 99.851 89.879 99.823 89.911 99.797V99.797C90.494 99.327 91.002 98.673 91.435 97.834 91.874 96.99 92.065 96.115 92.007 95.209V95.209C92 95.145 92.023 95.109 92.077 95.1 92.13 95.101 92.165 95.112 92.182 95.133 92.195 95.149 92.203 95.169 92.205 95.194V95.194C92.252 96.196 92.065 97.129 91.643 97.994 91.226 98.864 90.702 99.553 90.071 100.061V100.061C89.409 100.595 88.757 100.811 88.114 100.708V100.708C87.7 100.64 87.333 100.407 87.013 100.009V100.009C86.479 99.347 86.153 98.434 86.036 97.269V97.269C85.883 95.68 86.128 94.293 86.773 93.108V93.108C87.03 92.657 87.33 92.292 87.675 92.014V92.014C88.098 91.673 88.482 91.525 88.826 91.571V91.571C89.053 91.615 89.242 91.73 89.391 91.915V91.915C89.669 92.26 89.773 92.757 89.703 93.408 89.632 94.068 89.462 94.682 89.193 95.248 88.924 95.824 88.64 96.258 88.342 96.551V96.551C88.218 96.668 88.127 96.685 88.068 96.601V96.601C87.989 96.481 88.017 96.354 88.153 96.218V96.218C88.617 95.774 88.956 95.252 89.17 94.65 89.38 94.053 89.423 93.451 89.299 92.842V92.842C89.268 92.587 89.178 92.367 89.029 92.181ZM94.242 90.534V90.534C94.54 90.216 94.843 90.201 95.151 90.49V90.49C95.305 90.634 95.392 90.799 95.413 90.987V90.987C95.492 91.331 95.46 91.743 95.317 92.225 95.164 92.707 94.991 93.071 94.797 93.318V93.318C94.728 93.402 94.663 93.421 94.604 93.375V93.375C94.575 93.367 94.567 93.345 94.58 93.311 94.594 93.287 94.605 93.269 94.615 93.259V93.259C94.73 93.116 94.828 92.881 94.909 92.556V92.556C95.068 91.968 95.121 91.478 95.069 91.085V91.085C95.035 90.912 94.968 90.78 94.868 90.687 94.774 90.599 94.683 90.602 94.594 90.696V90.696C94.524 90.771 94.461 90.903 94.405 91.092V91.092C94.274 91.491 94.226 91.991 94.26 92.592 94.29 93.198 94.415 93.692 94.634 94.075V94.075C94.701 94.193 94.779 94.294 94.868 94.378 94.958 94.461 95.082 94.503 95.241 94.502 95.39 94.502 95.539 94.423 95.688 94.264V94.264C95.855 94.085 96.001 93.839 96.126 93.527V93.527C96.471 92.61 96.537 91.717 96.325 90.848V90.848C96.313 90.771 96.336 90.732 96.394 90.73V90.73C96.427 90.714 96.454 90.716 96.473 90.735 96.488 90.748 96.499 90.777 96.505 90.82V90.82C96.636 91.268 96.69 91.734 96.667 92.216V92.216C96.622 93.161 96.369 93.88 95.908 94.372V94.372C95.513 94.794 95.11 94.971 94.698 94.903V94.903C94.538 94.875 94.389 94.796 94.25 94.665 94.106 94.531 93.971 94.335 93.847 94.079V94.079C93.654 93.619 93.606 92.982 93.704 92.17 93.802 91.358 93.982 90.813 94.242 90.534ZM98.341 85.411V85.411C98.448 85.261 98.582 85.244 98.742 85.359 98.902 85.474 99.07 85.708 99.245 86.059 99.42 86.411 99.57 86.686 99.695 86.885V86.885C99.902 87.227 100.097 87.463 100.28 87.594 100.457 87.721 100.595 87.779 100.696 87.767V87.767C100.868 87.748 100.969 87.62 100.998 87.381 101.022 87.138 101.007 86.767 100.954 86.269 100.902 85.77 100.811 85.336 100.682 84.967V84.967C100.665 84.921 100.678 84.885 100.723 84.858 100.763 84.837 100.792 84.832 100.808 84.844 100.825 84.856 100.84 84.876 100.854 84.903V84.903C100.954 85.125 101.051 85.463 101.145 85.915 101.239 86.368 101.285 86.77 101.285 87.122 101.28 87.478 101.196 87.77 101.033 87.997V87.997C100.869 88.214 100.706 88.336 100.545 88.362 100.387 88.383 100.237 88.342 100.093 88.239 99.949 88.136 99.816 88.024 99.694 87.902 99.581 87.779 99.462 87.619 99.337 87.42V87.42C99.138 87.101 98.993 86.842 98.902 86.643 98.81 86.443 98.74 86.325 98.69 86.29 98.64 86.254 98.597 86.261 98.562 86.311V86.311C98.486 86.416 98.471 86.706 98.515 87.182V87.182C98.556 87.521 98.696 88.078 98.936 88.854 99.185 89.627 99.305 90.049 99.297 90.118V90.118C99.248 90.443 99.202 90.636 99.158 90.697 99.118 90.752 99.088 90.772 99.065 90.756 99.049 90.744 99.025 90.719 98.994 90.68 98.969 90.645 98.838 90.455 98.601 90.108 98.363 89.762 98.101 89.386 97.815 88.979 97.529 88.573 97.356 88.323 97.297 88.23 97.239 88.147 97.187 88.08 97.14 88.029 97.088 87.984 97.049 87.939 97.022 87.895 96.992 87.856 96.965 87.8 96.943 87.725 96.917 87.656 96.926 87.591 96.97 87.531 97.004 87.471 97.063 87.401 97.147 87.319 97.231 87.236 97.306 87.219 97.373 87.267V87.267C97.417 87.299 97.491 87.406 97.594 87.589 97.697 87.772 98.076 88.358 98.732 89.348V89.348C98.615 88.904 98.497 88.367 98.379 87.738 98.261 87.109 98.192 86.598 98.172 86.207V86.207C98.169 85.836 98.226 85.571 98.341 85.411ZM101.316 80.774L101.382 80.635C101.635 80.067 101.795 79.724 101.861 79.605 101.924 79.491 101.973 79.445 102.009 79.465V79.465C102.05 79.488 102.05 79.593 102.009 79.78 101.958 79.97 101.789 80.406 101.504 81.088V81.088C101.549 81.16 101.601 81.243 101.657 81.337V81.337C101.764 81.536 101.834 81.649 101.867 81.675V81.675C102.448 82.52 102.839 83.014 103.04 83.156V83.156C103.103 83.199 103.184 83.248 103.285 83.304 103.38 83.357 103.477 83.372 103.576 83.349V83.349C103.742 83.316 103.825 83.18 103.827 82.939 103.834 82.702 103.778 82.34 103.659 81.854 103.544 81.361 103.404 80.933 103.24 80.569V80.569C103.218 80.526 103.231 80.487 103.282 80.452V80.452C103.385 80.378 103.56 80.716 103.804 81.467V81.467C104.041 82.19 104.133 82.732 104.081 83.092V83.092C104.041 83.304 103.988 83.469 103.922 83.588V83.588C103.766 83.867 103.529 83.98 103.208 83.927V83.927C103.154 83.912 103.091 83.885 103.02 83.846V83.846C102.776 83.71 102.467 83.39 102.092 82.887V82.887C102.15 82.965 102.249 83.2 102.391 83.59V83.59C102.426 83.695 102.398 83.745 102.307 83.741V83.741C102.291 83.741 102.272 83.734 102.248 83.721 102.218 83.704 102.194 83.671 102.175 83.621V83.621C101.938 83.038 101.729 82.568 101.546 82.209V82.209C101.54 82.206 101.435 82.046 101.229 81.729V81.729C101.201 81.807 101.166 81.885 101.123 81.962 101.083 82.034 101.033 82.076 100.971 82.088 100.904 82.098 100.846 82.069 100.797 82.003V82.003C100.716 81.896 100.758 81.674 100.922 81.337V81.337C100.913 81.324 100.914 81.309 100.924 81.291V81.291L100.235 80.219C100.192 80.156 100.15 80.091 100.111 80.022 100.071 79.953 100.041 79.901 100.021 79.867 100.002 79.833 99.979 79.797 99.953 79.759 99.931 79.715 99.917 79.684 99.911 79.666 99.903 79.638 99.897 79.615 99.892 79.596V79.596C99.866 79.544 99.892 79.449 99.968 79.312 100.044 79.175 100.134 79.104 100.238 79.1V79.1C100.275 79.089 100.329 79.104 100.4 79.143 100.466 79.18 100.525 79.248 100.579 79.348 100.63 79.438 100.658 79.52 100.664 79.593 100.667 79.673 100.684 79.733 100.716 79.774V79.774ZM103.704 75.373V75.373C103.876 74.973 104.156 74.856 104.544 75.023V75.023C104.738 75.106 104.876 75.232 104.959 75.401V75.401C105.15 75.698 105.26 76.097 105.29 76.598 105.31 77.103 105.271 77.505 105.172 77.803V77.803C105.136 77.906 105.082 77.946 105.01 77.922V77.922C104.98 77.924 104.965 77.907 104.966 77.87 104.971 77.842 104.975 77.822 104.981 77.81V77.81C105.041 77.635 105.053 77.382 105.019 77.048V77.048C104.968 76.441 104.852 75.962 104.669 75.61V75.61C104.578 75.46 104.47 75.358 104.345 75.304 104.226 75.253 104.141 75.287 104.09 75.406V75.406C104.05 75.5 104.036 75.645 104.047 75.843V75.843C104.06 76.263 104.184 76.749 104.421 77.303 104.655 77.862 104.94 78.285 105.277 78.57V78.57C105.379 78.658 105.487 78.727 105.6 78.775 105.712 78.823 105.843 78.82 105.992 78.766 106.133 78.715 106.246 78.589 106.332 78.389V78.389C106.428 78.164 106.482 77.884 106.493 77.548V77.548C106.506 76.568 106.265 75.706 105.77 74.96V74.96C105.733 74.892 105.741 74.848 105.794 74.826V74.826C105.82 74.8 105.846 74.793 105.871 74.803 105.89 74.811 105.909 74.835 105.93 74.873V74.873C106.205 75.25 106.414 75.67 106.557 76.131V76.131C106.835 77.035 106.841 77.797 106.576 78.416V78.416C106.348 78.948 106.028 79.252 105.618 79.327V79.327C105.458 79.355 105.291 79.331 105.116 79.256 104.934 79.178 104.742 79.04 104.538 78.842V78.842C104.199 78.474 103.938 77.892 103.755 77.095 103.571 76.297 103.554 75.724 103.704 75.373ZM108.948 71.934V71.934C108.831 72.325 108.534 72.449 108.058 72.307 107.582 72.165 107.1 71.651 106.612 70.766V70.766C106.575 70.698 106.545 70.647 106.52 70.611V70.611L106.426 70.497C106.315 70.344 106.239 70.268 106.196 70.269V70.269L106.079 70.266C105.978 70.271 105.872 70.378 105.76 70.586 105.655 70.796 105.58 70.973 105.537 71.116V71.116C106.309 72.1 106.746 72.668 106.85 72.819 106.956 72.965 106.993 73.054 106.962 73.087 106.924 73.119 106.892 73.13 106.866 73.123 106.833 73.113 106.791 73.075 106.74 73.01V73.01C106.356 72.441 105.922 71.92 105.438 71.449V71.449C105.391 71.534 105.338 71.593 105.279 71.625 105.213 71.655 105.127 71.633 105.022 71.559 104.909 71.482 104.785 71.317 104.648 71.063 104.504 70.807 104.418 70.597 104.389 70.432 104.369 70.262 104.354 70.155 104.347 70.11 104.345 70.067 104.351 70.023 104.365 69.977V69.977C104.392 69.886 104.523 69.96 104.756 70.201V70.201L105.336 70.864C105.459 70.524 105.557 70.231 105.631 69.983V69.983L105.741 69.579C105.782 69.442 105.831 69.35 105.888 69.303 105.938 69.254 106.002 69.255 106.079 69.307V69.307C106.204 69.408 106.359 69.604 106.543 69.893V69.893C106.945 70.518 107.416 71.035 107.954 71.445V71.445C108.088 71.542 108.208 71.606 108.312 71.637V71.637C108.534 71.703 108.669 71.655 108.718 71.492V71.492C108.733 71.44 108.721 71.326 108.681 71.151 108.641 70.975 108.514 70.664 108.3 70.216 108.088 69.762 107.86 69.381 107.618 69.075V69.075C107.587 69.037 107.588 68.998 107.621 68.958 107.652 68.925 107.678 68.911 107.697 68.917 107.717 68.923 107.738 68.936 107.76 68.957V68.957C107.927 69.135 108.129 69.423 108.365 69.82 108.601 70.218 108.775 70.589 108.884 70.934V70.934C109.024 71.275 109.045 71.608 108.948 71.934Z" fill="#000000" data-fill-palette-color="accent"></path><path d="M3.933 38.935V38.935C4.068 38.983 4.2 38.986 4.33 38.944 4.457 38.91 4.554 38.871 4.619 38.829V38.829C4.739 38.734 4.879 38.611 5.041 38.458V38.458C5.154 38.382 5.207 38.375 5.2 38.438V38.438C5.191 38.463 5.177 38.491 5.16 38.521V38.521C5.043 38.711 4.841 38.885 4.554 39.045 4.268 39.204 3.991 39.244 3.723 39.165V39.165C3.617 39.157 3.533 39.141 3.468 39.119V39.119C3.096 38.988 2.829 38.722 2.667 38.319V38.319C2.381 37.57 2.456 36.572 2.893 35.326V35.326C2.854 35.313 2.814 35.284 2.771 35.24V35.24C2.675 35.185 2.671 35.032 2.759 34.782V34.782C2.833 34.57 2.92 34.485 3.021 34.527V34.527C3.078 34.591 3.128 34.633 3.171 34.656V34.656C3.394 34.121 3.664 33.7 3.981 33.392V33.392C4.088 33.293 4.192 33.232 4.293 33.21 4.397 33.181 4.468 33.174 4.507 33.187V33.187C4.584 33.214 4.513 33.366 4.293 33.642 4.074 33.919 3.852 34.378 3.627 35.021V35.021C3.793 35.122 4.198 35.43 4.84 35.943 5.478 36.448 5.871 36.766 6.02 36.897 6.178 37.024 6.389 37.203 6.655 37.433 6.927 37.665 7.146 37.861 7.314 38.021 7.473 38.185 7.656 38.371 7.864 38.581V38.581C8.21 38.933 8.519 39.315 8.793 39.728V39.728C8.963 40.026 9.074 40.245 9.125 40.386V40.386C9.175 40.244 9.274 39.962 9.422 39.538 9.568 39.12 9.684 38.75 9.768 38.426 9.861 38.098 9.925 37.926 9.96 37.909 9.997 37.886 10.027 37.893 10.05 37.93V37.93C10.122 38.012 10.166 38.104 10.182 38.203 10.195 38.308 10.016 38.953 9.646 40.135 9.266 41.322 9.026 42.06 8.925 42.349 8.821 42.644 8.747 42.856 8.702 42.985V42.985C8.628 43.175 8.517 43.245 8.37 43.193V43.193C8.292 43.166 8.195 43.103 8.079 43.004V43.004C7.957 42.897 7.908 42.75 7.93 42.563 7.955 42.37 8.048 42.226 8.211 42.131V42.131C8.478 41.965 8.651 41.77 8.73 41.545 8.807 41.327 8.845 41.084 8.844 40.817 8.838 40.548 8.722 40.241 8.497 39.895V39.895C7.815 38.877 6.124 37.467 3.424 35.663V35.663C3.211 36.476 3.142 37.187 3.217 37.798 3.283 38.412 3.522 38.791 3.933 38.935ZM10.97 36.049V36.049C11.04 36.218 11.126 36.29 11.229 36.264 11.332 36.238 11.403 36.185 11.441 36.105 11.48 36.025 11.506 35.94 11.519 35.848V35.848C11.583 35.448 11.538 35.008 11.384 34.526 11.224 34.042 10.982 33.721 10.656 33.565V33.565C10.479 33.48 10.186 33.585 9.78 33.881V33.881C9.591 34.024 9.481 34.103 9.451 34.119V34.119C9.197 34.269 8.984 34.336 8.81 34.321V34.321C8.95 34.532 9.144 34.851 9.392 35.279V35.279C9.433 35.367 9.423 35.427 9.363 35.458 9.302 35.489 9.247 35.47 9.197 35.401V35.401C8.905 34.846 8.628 34.441 8.365 34.186V34.186C7.947 33.91 7.699 33.387 7.623 32.618 7.547 31.849 7.627 31.22 7.862 30.729V30.729C8.012 30.416 8.174 30.221 8.346 30.146 8.515 30.076 8.655 30.068 8.766 30.121 8.87 30.171 8.978 30.26 9.09 30.389 9.195 30.516 9.265 30.7 9.299 30.943V30.943C9.313 31.01 9.286 31.05 9.219 31.063V31.063C9.164 31.052 9.114 30.983 9.07 30.855 9.025 30.728 8.935 30.617 8.8 30.522 8.664 30.427 8.54 30.45 8.426 30.592V30.592C8.414 30.616 8.403 30.641 8.391 30.665V30.665C8.238 30.984 8.166 31.441 8.175 32.034 8.185 32.628 8.312 33.149 8.557 33.599V33.599C8.648 33.771 8.764 33.891 8.905 33.959 9.046 34.026 9.222 33.99 9.433 33.85V33.85C9.52 33.793 9.663 33.692 9.862 33.546 10.066 33.403 10.214 33.3 10.304 33.238 10.392 33.181 10.515 33.12 10.676 33.053 10.833 32.993 10.961 32.979 11.058 33.011V33.011C11.322 33.092 11.536 33.338 11.7 33.749V33.749C11.941 34.333 11.965 35.047 11.771 35.89V35.89C11.732 36.082 11.669 36.267 11.584 36.445 11.498 36.623 11.376 36.712 11.218 36.711V36.711C11.17 36.718 11.112 36.705 11.044 36.673 10.977 36.641 10.894 36.522 10.796 36.316V36.316C10.733 36.135 10.71 35.882 10.729 35.559V35.559C10.729 35.529 10.742 35.509 10.77 35.499 10.794 35.496 10.817 35.503 10.838 35.521 10.86 35.539 10.867 35.595 10.859 35.69 10.852 35.784 10.889 35.904 10.97 36.049ZM9.743 23.755V23.755C9.634 23.558 9.533 23.431 9.44 23.373V23.373C9.279 23.272 9.157 23.287 9.073 23.42V23.42C9.008 23.524 8.986 23.694 9.006 23.932V23.932C9.098 24.849 9.477 25.917 10.142 27.137V27.137C10.684 28.119 11.185 28.902 11.645 29.488V29.488C11.614 28.73 11.398 27.767 10.997 26.6 10.595 25.433 10.177 24.485 9.743 23.755ZM11.995 29.948V29.948C12.203 30.206 12.346 30.369 12.426 30.434 12.509 30.494 12.625 30.571 12.775 30.665 12.925 30.759 13.087 30.808 13.261 30.813V30.813C13.551 30.81 13.703 30.6 13.716 30.182V30.182C13.739 29.876 13.698 29.441 13.594 28.877 13.485 28.319 13.358 27.862 13.212 27.506V27.506C13.2 27.474 13.203 27.444 13.221 27.415V27.415C13.264 27.346 13.326 27.356 13.406 27.446V27.446C13.541 27.692 13.673 28.071 13.801 28.585 13.929 29.099 14.008 29.542 14.04 29.915 14.065 30.285 13.999 30.596 13.84 30.85V30.85C13.475 31.433 13.01 31.547 12.444 31.193V31.193C12.421 31.178 12.398 31.164 12.375 31.15V31.15C11.851 30.781 11.208 30.001 10.445 28.808 9.68 27.606 9.15 26.624 8.857 25.862V25.862L8.629 25.226C8.585 25.078 8.539 24.876 8.49 24.621V24.621C8.387 24.131 8.439 23.721 8.645 23.393 8.847 23.07 9.085 22.914 9.36 22.925V22.925C9.454 22.928 9.568 22.971 9.7 23.054 9.833 23.137 9.981 23.31 10.146 23.574V23.574C11.029 25.227 11.646 27.352 11.995 29.948ZM16.009 27.266V27.266C15.921 27.379 15.789 27.475 15.615 27.554 15.44 27.633 15.256 27.67 15.061 27.664 14.866 27.659 14.697 27.599 14.552 27.486 14.408 27.372 14.296 27.233 14.218 27.068V27.068C14.028 26.693 13.919 26.236 13.893 25.697 13.857 25.158 13.875 24.64 13.945 24.142 14.011 23.639 14.097 23.27 14.205 23.034 14.316 22.793 14.445 22.579 14.592 22.391 14.739 22.204 14.916 22.078 15.121 22.015 15.323 21.957 15.477 21.969 15.584 22.053V22.053C15.616 22.079 15.636 22.098 15.642 22.112 15.639 22.127 15.619 22.141 15.582 22.156V22.156C15.381 22.136 15.175 22.26 14.965 22.528 14.755 22.796 14.606 23.168 14.518 23.643 14.42 24.121 14.388 24.614 14.42 25.124V25.124C14.463 25.555 14.555 25.983 14.698 26.407 14.846 26.825 14.989 27.089 15.128 27.198V27.198C15.391 27.404 15.581 27.432 15.698 27.282 15.816 27.132 15.874 26.81 15.873 26.316V26.316C15.844 25.471 15.801 24.875 15.744 24.528V24.528C15.55 23.32 15.474 22.69 15.516 22.636V22.636C15.583 22.55 15.69 22.47 15.836 22.394 15.981 22.309 16.071 22.315 16.107 22.412V22.412C16.336 23.18 16.687 23.801 17.161 24.277V24.277C17.221 24.333 17.299 24.399 17.396 24.474 17.497 24.554 17.601 24.593 17.708 24.589V24.589C17.904 24.571 18.028 24.43 18.078 24.167 18.124 23.899 18.127 23.482 18.087 22.915 18.048 22.348 17.964 21.854 17.836 21.433V21.433C17.82 21.377 17.834 21.336 17.88 21.311 17.93 21.291 17.961 21.285 17.972 21.293V21.293C18.079 21.377 18.18 21.733 18.275 22.362 18.369 22.98 18.411 23.429 18.401 23.706V23.706C18.388 24.241 18.27 24.65 18.047 24.934V24.934C17.833 25.207 17.554 25.282 17.209 25.159V25.159C17.107 25.113 17.002 25.048 16.895 24.964V24.964C16.574 24.712 16.286 24.378 16.032 23.963V23.963C16.028 24.002 16.069 24.247 16.157 24.696 16.24 25.142 16.286 25.619 16.293 26.127 16.301 26.635 16.207 27.015 16.009 27.266ZM18.939 18.267V18.267C18.985 18.317 19.042 18.454 19.109 18.679 19.181 18.899 19.464 19.632 19.957 20.877V20.877C19.932 20.366 19.926 19.744 19.939 19.012V19.012C19.975 17.559 20.134 16.704 20.415 16.447V16.447C20.476 16.392 20.547 16.354 20.63 16.333 20.717 16.318 20.814 16.368 20.919 16.484 21.03 16.604 21.114 16.767 21.172 16.972 21.23 17.186 21.305 17.44 21.398 17.734 21.501 18.027 21.557 18.215 21.568 18.297V18.297C21.667 17.276 21.809 16.579 21.994 16.207 22.184 15.83 22.325 15.6 22.415 15.517 22.51 15.43 22.588 15.419 22.648 15.484V15.484C22.685 15.524 22.724 15.668 22.766 15.916 22.808 16.163 22.906 16.493 23.061 16.905 23.216 17.316 23.341 17.589 23.436 17.723 23.537 17.853 23.628 17.963 23.711 18.054 23.798 18.149 23.894 18.204 24 18.218V18.218C24.197 18.232 24.342 18.113 24.435 17.862 24.523 17.606 24.595 17.195 24.649 16.629 24.703 16.063 24.701 15.562 24.644 15.126V15.126C24.642 15.063 24.665 15.023 24.714 15.006 24.768 14.994 24.801 14.995 24.815 15.01 24.829 15.025 24.84 15.048 24.848 15.077V15.077C24.913 15.35 24.944 15.746 24.94 16.266V16.266C24.93 17.123 24.833 17.738 24.648 18.11V18.11C24.428 18.505 24.211 18.726 23.996 18.775 23.782 18.823 23.612 18.813 23.485 18.744 23.363 18.672 23.256 18.585 23.164 18.484V18.484C22.875 18.168 22.648 17.799 22.484 17.377 22.32 16.946 22.223 16.638 22.193 16.454V16.454C22.037 16.799 21.943 17.134 21.909 17.46V17.46C21.853 17.954 21.825 18.367 21.825 18.699V18.699L21.821 19.104C21.894 19.304 21.864 19.484 21.732 19.642 21.6 19.799 21.484 19.814 21.383 19.684V19.684C21.279 19.549 21.142 19.153 20.974 18.495 20.806 17.837 20.699 17.483 20.653 17.433 20.607 17.383 20.557 17.383 20.501 17.433V17.433C20.381 17.543 20.289 17.881 20.225 18.447V18.447C20.193 18.826 20.222 19.473 20.311 20.387 20.401 21.292 20.434 21.787 20.411 21.873V21.873C20.28 22.214 20.185 22.412 20.124 22.467 20.064 22.522 20.025 22.54 20.007 22.52 19.988 22.5 19.971 22.46 19.954 22.402 19.937 22.343 19.608 21.575 18.966 20.096V20.096C19.027 20.455 19.052 20.75 19.042 20.981V20.981C19.042 21.092 19.003 21.104 18.925 21.019 18.851 20.939 18.812 20.845 18.807 20.739V20.739C18.746 20.067 18.659 19.528 18.547 19.123V19.123C18.376 18.856 18.332 18.647 18.416 18.496V18.496C18.459 18.402 18.544 18.324 18.672 18.262 18.791 18.2 18.88 18.201 18.939 18.267ZM25.709 12.23V12.23C25.899 12.099 26.052 12.08 26.166 12.175V12.175C26.23 12.23 26.266 12.3 26.275 12.385 26.287 12.476 26.297 12.544 26.303 12.589 26.319 12.636 26.329 12.674 26.334 12.704V12.704C26.35 12.8 26.362 12.895 26.369 12.99V12.99C26.531 14.135 26.683 14.833 26.823 15.084V15.084C26.863 15.155 26.919 15.241 26.988 15.341 27.062 15.448 27.15 15.515 27.252 15.544V15.544C27.44 15.588 27.597 15.492 27.723 15.256 27.84 15.018 27.964 14.622 28.095 14.069 28.225 13.516 28.297 13.015 28.311 12.567V12.567C28.312 12.509 28.338 12.474 28.388 12.464 28.443 12.46 28.476 12.466 28.488 12.482 28.499 12.499 28.505 12.525 28.503 12.559V12.559C28.53 12.838 28.507 13.234 28.432 13.749V13.749C28.312 14.593 28.132 15.189 27.892 15.536V15.536C27.753 15.731 27.62 15.873 27.491 15.962V15.962C27.194 16.167 26.899 16.159 26.607 15.939V15.939C26.555 15.901 26.503 15.842 26.448 15.764V15.764C26.271 15.506 26.118 15.028 25.992 14.33V14.33C26.011 14.441 25.995 14.729 25.944 15.194V15.194C25.927 15.313 25.873 15.35 25.784 15.304V15.304C25.767 15.291 25.749 15.271 25.729 15.243 25.714 15.221 25.706 15.18 25.707 15.122V15.122C25.758 14.417 25.782 13.834 25.778 13.373V13.373C25.734 13.346 25.705 13.291 25.691 13.21V13.21C25.556 12.691 25.536 12.382 25.633 12.282V12.282C25.655 12.267 25.681 12.25 25.709 12.23ZM25.567 10.12V10.12L25.724 10.545C25.77 10.612 25.798 10.754 25.807 10.971 25.807 11.187 25.781 11.312 25.731 11.346V11.346C25.412 11.567 25.198 11.599 25.09 11.442V11.442C25.07 11.414 25.135 11.166 25.284 10.699V10.699L25.379 10.423C25.423 10.236 25.459 10.132 25.487 10.113 25.521 10.09 25.547 10.092 25.567 10.12ZM31.91 9.409V9.409L31.839 9.133C31.75 8.972 31.646 8.925 31.527 8.991V8.991C31.199 9.172 30.894 9.675 30.612 10.5 30.332 11.316 30.258 12.026 30.39 12.63V12.63C30.426 12.781 30.474 12.91 30.534 13.017 30.593 13.124 30.666 13.2 30.753 13.245V13.245C30.928 13.335 31.113 13.326 31.31 13.217 31.506 13.109 31.706 12.963 31.908 12.781V12.781C32.336 12.358 32.645 11.919 32.836 11.463 33.03 11.013 33.181 10.448 33.286 9.767V9.767C33.299 9.706 33.331 9.673 33.383 9.667 33.431 9.656 33.463 9.666 33.48 9.695 33.496 9.725 33.507 9.773 33.513 9.84V9.84C33.419 10.569 33.252 11.21 33.013 11.762 32.774 12.314 32.407 12.789 31.912 13.188V13.188C31.77 13.297 31.631 13.39 31.494 13.466V13.466C31.107 13.68 30.759 13.748 30.451 13.669 30.143 13.591 29.925 13.435 29.797 13.203 29.668 12.971 29.583 12.691 29.542 12.364V12.364C29.494 11.799 29.663 11.099 30.049 10.263 30.434 9.428 30.818 8.905 31.199 8.694V8.694C31.294 8.641 31.393 8.602 31.496 8.576V8.576C31.759 8.532 31.94 8.599 32.039 8.778V8.778C32.104 8.897 32.137 9.054 32.136 9.249 32.129 9.447 32.093 9.537 32.028 9.518 31.958 9.503 31.918 9.467 31.91 9.409ZM38.481 5.365V5.365L38.399 5.165C38.243 4.544 38.376 3.925 38.797 3.308V3.308C39.541 2.216 40.957 1.3 43.044 0.56V0.56C43.361 0.453 43.738 0.344 44.173 0.235 44.616 0.124 45.186 0.048 45.884 0.007 46.584-0.028 47.195 0.071 47.717 0.306V0.306C48.544 0.695 49.071 1.345 49.299 2.256 49.528 3.167 49.468 4.077 49.12 4.985 48.77 5.886 48.229 6.653 47.496 7.286 46.764 7.918 45.922 8.353 44.971 8.591 44.021 8.829 43.195 8.798 42.495 8.496V8.496C42.486 8.512 42.462 8.599 42.424 8.756 42.386 8.913 42.344 9.067 42.298 9.219V9.219C42.05 9.968 41.709 10.148 41.275 9.759V9.759C41.023 9.535 40.848 9.231 40.752 8.848 40.658 8.472 40.584 8.006 40.529 7.452V7.452C40.529 7.396 40.465 7.278 40.336 7.1V7.1C40.288 7.021 40.296 6.928 40.36 6.82V6.82C40.42 6.749 40.507 6.678 40.623 6.607 40.74 6.543 40.829 6.521 40.89 6.54 40.946 6.568 40.957 6.668 40.922 6.838 40.895 7.006 40.897 7.156 40.93 7.288 40.963 7.42 41.148 7.584 41.485 7.781 41.82 7.97 42.023 8.067 42.094 8.07V8.07C42.175 7.496 42.38 6.409 42.709 4.811V4.811C42.749 4.633 42.759 4.504 42.739 4.425 42.719 4.346 42.693 4.286 42.662 4.244V4.244C42.646 3.982 42.825 3.509 43.201 2.826 43.577 2.142 43.924 1.761 44.241 1.681V1.681C44.36 1.651 44.525 1.652 44.736 1.684 44.942 1.723 45.078 1.815 45.142 1.961V1.961C45.155 2.013 45.155 2.042 45.142 2.045 45.137 2.053 45.116 2.051 45.078 2.04 45.035 2.037 45.007 2.037 44.994 2.04V2.04C44.71 2.111 44.428 2.399 44.147 2.904 43.867 3.41 43.618 4.04 43.4 4.796V4.796C43.019 6.105 42.738 7.249 42.555 8.228V8.228C43.195 8.489 43.839 8.538 44.486 8.376V8.376C45.318 8.168 46.066 7.752 46.731 7.13 47.39 6.509 47.879 5.857 48.199 5.173V5.173C48.727 4.059 48.878 3.053 48.653 2.155V2.155C48.488 1.495 48.08 0.972 47.429 0.588 46.771 0.199 45.869 0.13 44.726 0.381V0.381C44.673 0.394 44.62 0.408 44.567 0.421V0.421C43.669 0.646 42.758 1.028 41.834 1.568 40.918 2.113 40.176 2.748 39.606 3.473 39.036 4.191 38.825 4.848 38.973 5.442V5.442C39.01 5.587 39.089 5.708 39.211 5.803 39.332 5.892 39.451 5.947 39.568 5.967 39.677 5.981 39.814 5.996 39.979 6.011 40.15 6.024 40.263 6.038 40.316 6.053 40.367 6.061 40.402 6.077 40.422 6.1V6.1C40.453 6.169 40.4 6.221 40.261 6.256V6.256C39.931 6.311 39.574 6.27 39.189 6.135 38.804 6 38.576 5.787 38.503 5.496V5.496C38.493 5.457 38.486 5.413 38.481 5.365ZM40.987 7.811V7.811C41.285 8.999 41.516 9.572 41.681 9.531V9.531C41.807 9.5 41.908 9.148 41.985 8.476V8.476C41.992 8.446 41.994 8.425 41.99 8.412V8.412C41.918 8.374 41.757 8.277 41.507 8.122 41.258 7.967 41.085 7.863 40.987 7.811ZM51.979 6.944V6.944C51.836 6.949 51.678 6.909 51.505 6.826 51.332 6.743 51.186 6.625 51.065 6.472 50.945 6.319 50.882 6.15 50.876 5.967 50.871 5.783 50.906 5.608 50.983 5.443V5.443C51.148 5.056 51.43 4.68 51.827 4.314 52.218 3.941 52.627 3.622 53.054 3.357 53.482 3.086 53.821 2.915 54.07 2.847 54.327 2.777 54.574 2.739 54.813 2.732 55.051 2.725 55.26 2.78 55.441 2.897 55.614 3.014 55.703 3.141 55.707 3.277V3.277C55.709 3.318 55.706 3.345 55.7 3.359 55.686 3.366 55.662 3.36 55.628 3.341V3.341C55.514 3.174 55.287 3.096 54.946 3.106 54.606 3.116 54.225 3.24 53.804 3.478 53.375 3.709 52.975 4 52.605 4.352V4.352C52.301 4.66 52.032 5.006 51.799 5.387 51.572 5.769 51.461 6.048 51.466 6.225V6.225C51.477 6.558 51.577 6.722 51.767 6.716 51.958 6.71 52.242 6.548 52.621 6.23V6.23C53.251 5.667 53.68 5.252 53.911 4.986V4.986C54.713 4.063 55.149 3.6 55.217 3.598V3.598C55.326 3.595 55.456 3.625 55.608 3.688 55.766 3.745 55.819 3.818 55.768 3.908V3.908C55.325 4.575 55.073 5.244 55.011 5.913V5.913C55.007 5.995 55.007 6.097 55.01 6.219 55.014 6.348 55.052 6.453 55.122 6.532V6.532C55.262 6.671 55.45 6.676 55.684 6.546 55.918 6.409 56.241 6.144 56.651 5.751 57.061 5.357 57.386 4.976 57.627 4.608V4.608C57.66 4.559 57.7 4.544 57.748 4.563 57.797 4.589 57.821 4.609 57.822 4.622V4.622C57.826 4.758 57.617 5.064 57.196 5.54 56.781 6.009 56.464 6.328 56.244 6.498V6.498C55.826 6.831 55.436 7.003 55.075 7.014V7.014C54.728 7.024 54.492 6.858 54.366 6.514V6.514C54.335 6.406 54.318 6.284 54.314 6.148V6.148C54.301 5.74 54.373 5.306 54.529 4.845V4.845C54.496 4.866 54.335 5.055 54.046 5.411 53.757 5.76 53.42 6.101 53.035 6.432 52.651 6.764 52.298 6.935 51.979 6.944ZM61.052 3.58C60.91 3.672 60.636 3.923 60.228 4.332 59.827 4.741 59.541 5.114 59.369 5.449 59.19 5.783 59.086 6.065 59.058 6.295 59.03 6.518 59.114 6.641 59.31 6.666 59.506 6.69 59.797 6.586 60.182 6.353V6.353C60.808 5.95 61.555 5.159 62.422 3.977V3.977C62.464 3.921 62.532 3.898 62.626 3.91 62.721 3.922 62.85 3.962 63.012 4.03 63.175 4.105 63.251 4.183 63.241 4.264V4.264C63.237 4.291 63.224 4.317 63.2 4.342V4.342C62.746 4.902 62.42 5.565 62.222 6.329V6.329C62.156 6.588 62.176 6.807 62.284 6.985V6.985C62.379 7.161 62.618 7.17 63.001 7.012V7.012C63.596 6.805 64.164 6.433 64.704 5.897 65.237 5.36 65.588 4.858 65.755 4.392V4.392C65.808 4.303 65.841 4.197 65.856 4.076V4.076C65.919 3.576 65.811 3.254 65.534 3.11V3.11C65.458 3.059 65.369 3.034 65.266 3.035 65.17 3.037 65.113 3.026 65.095 3.004 65.077 2.981 65.077 2.957 65.094 2.931V2.931C65.117 2.852 65.305 2.834 65.656 2.878V2.878C66.243 2.951 66.5 3.288 66.425 3.889 66.35 4.49 65.919 5.174 65.13 5.94V5.94C64.634 6.399 64.066 6.809 63.424 7.168V7.168C63.072 7.35 62.721 7.42 62.369 7.376V7.376C61.91 7.319 61.648 7.111 61.583 6.753V6.753C61.542 6.584 61.544 6.323 61.588 5.972 61.631 5.621 61.711 5.339 61.826 5.127V5.127C61.523 5.583 61.205 5.959 60.874 6.253 60.548 6.556 60.276 6.755 60.058 6.852 59.841 6.948 59.627 6.983 59.418 6.957V6.957C59.06 6.912 58.819 6.783 58.694 6.569 58.577 6.355 58.532 6.137 58.56 5.914V5.914C58.597 5.617 58.701 5.304 58.872 4.975 59.051 4.641 59.217 4.381 59.371 4.194 59.524 4.007 59.727 3.786 59.978 3.529 60.223 3.271 60.377 3.133 60.442 3.113V3.113C60.581 3.096 60.711 3.096 60.833 3.111 60.954 3.126 61.06 3.156 61.151 3.202 61.233 3.253 61.275 3.306 61.275 3.361 61.268 3.415 61.194 3.488 61.052 3.58ZM67.56 8.259V8.259C67.424 8.218 67.286 8.13 67.149 7.997 67.011 7.863 66.91 7.705 66.844 7.521 66.778 7.338 66.772 7.159 66.824 6.983 66.877 6.807 66.966 6.652 67.091 6.519V6.519C67.371 6.205 67.756 5.937 68.249 5.716 68.738 5.486 69.227 5.313 69.716 5.197 70.208 5.074 70.583 5.02 70.842 5.034 71.107 5.049 71.354 5.091 71.582 5.16 71.81 5.228 71.991 5.347 72.125 5.515 72.253 5.681 72.298 5.829 72.258 5.96V5.96C72.247 5.999 72.236 6.024 72.225 6.035 72.21 6.038 72.189 6.024 72.163 5.995V5.995C72.107 5.801 71.917 5.655 71.591 5.557 71.265 5.459 70.864 5.456 70.389 5.548 69.909 5.631 69.438 5.781 68.975 5.997V5.997C68.589 6.194 68.225 6.437 67.882 6.725 67.547 7.015 67.353 7.244 67.302 7.414V7.414C67.207 7.733 67.25 7.92 67.432 7.975 67.615 8.03 67.936 7.966 68.396 7.785V7.785C69.171 7.449 69.711 7.192 70.013 7.013V7.013C71.067 6.391 71.626 6.09 71.691 6.109V6.109C71.796 6.141 71.91 6.21 72.033 6.319 72.166 6.422 72.193 6.509 72.116 6.578V6.578C71.484 7.071 71.034 7.624 70.764 8.24V8.24C70.734 8.316 70.701 8.413 70.666 8.53 70.629 8.654 70.631 8.765 70.673 8.863V8.863C70.762 9.039 70.938 9.102 71.202 9.053 71.467 8.998 71.857 8.849 72.37 8.605 72.884 8.361 73.313 8.103 73.658 7.83V7.83C73.705 7.794 73.748 7.793 73.787 7.826 73.825 7.866 73.842 7.892 73.838 7.905V7.905C73.799 8.035 73.504 8.26 72.954 8.578 72.412 8.891 72.01 9.094 71.748 9.186V9.186C71.246 9.369 70.822 9.408 70.476 9.305V9.305C70.144 9.205 69.972 8.972 69.961 8.606V8.606C69.966 8.494 69.988 8.373 70.028 8.243V8.243C70.145 7.851 70.351 7.462 70.645 7.074V7.074C70.606 7.084 70.394 7.212 70.007 7.458 69.623 7.698 69.195 7.915 68.725 8.107 68.255 8.3 67.867 8.351 67.561 8.259ZM81.515 4.881V4.881C81.691 4.889 81.832 4.917 81.937 4.966V4.966C82.301 5.136 82.49 5.349 82.506 5.604V5.604C82.528 5.735 82.521 5.837 82.487 5.911V5.911C82.227 6.466 81.43 6.949 80.095 7.361V7.361C78.922 7.699 77.864 7.97 76.919 8.175V8.175C76.449 8.586 75.914 9.11 75.316 9.746V9.746C75.779 9.527 76.348 9.282 77.023 9.012V9.012C78.377 8.496 79.235 8.323 79.599 8.493V8.493C79.778 8.577 79.828 8.709 79.751 8.891V8.891C79.68 9.091 79.558 9.255 79.385 9.385 79.205 9.511 79.041 9.63 78.891 9.74V9.74C78.203 10.199 77.742 10.679 77.509 11.178V11.178C77.431 11.345 77.408 11.481 77.441 11.586V11.586C77.498 11.771 77.657 11.856 77.919 11.843 78.189 11.827 78.596 11.736 79.14 11.57 79.684 11.403 80.152 11.213 80.546 10.999V10.999C80.603 10.973 80.645 10.978 80.674 11.014 80.699 11.056 80.708 11.086 80.699 11.104 80.69 11.123 80.674 11.141 80.65 11.16V11.16C80.423 11.325 80.068 11.504 79.586 11.7 79.107 11.889 78.734 12.011 78.468 12.067V12.067C77.95 12.177 77.519 12.152 77.173 11.991V11.991C76.865 11.846 76.729 11.591 76.765 11.225V11.225C76.775 11.139 76.805 11.044 76.854 10.939 76.9 10.841 76.96 10.737 77.033 10.629V10.629C77.238 10.304 77.709 9.867 78.447 9.318V9.318C78.596 9.207 78.685 9.121 78.714 9.06 78.743 8.998 78.723 8.951 78.656 8.92V8.92C78.526 8.859 78.195 8.907 77.664 9.064V9.064C77.295 9.177 76.709 9.451 75.904 9.886 75.096 10.312 74.648 10.531 74.56 10.542V10.542C74.195 10.552 73.978 10.541 73.911 10.509 73.843 10.477 73.808 10.446 73.808 10.416 73.81 10.394 73.828 10.373 73.861 10.35 73.89 10.319 74.04 10.168 74.31 9.896V9.896C75.209 8.986 75.81 8.385 76.113 8.091V8.091C75.68 8.309 75.161 8.543 74.556 8.793V8.793C74.456 8.829 74.429 8.798 74.476 8.699 74.519 8.607 74.6 8.529 74.721 8.465 74.841 8.401 75.084 8.282 75.451 8.108 75.818 7.934 76.084 7.799 76.249 7.703V7.703C76.192 7.632 76.181 7.559 76.216 7.485 76.244 7.408 76.294 7.367 76.364 7.362 76.427 7.355 76.509 7.404 76.609 7.511V7.511C76.748 7.441 76.881 7.349 77.009 7.236V7.236C78.972 5.593 80.474 4.808 81.515 4.881ZM81.766 6.126V6.126C81.969 5.981 82.103 5.84 82.166 5.704 82.23 5.569 82.2 5.472 82.076 5.414 81.959 5.36 81.768 5.36 81.501 5.416V5.416C80.272 5.682 78.914 6.456 77.428 7.737V7.737C78.12 7.639 78.894 7.438 79.751 7.133 80.605 6.834 81.276 6.498 81.766 6.126ZM93.783 14.754V14.754C94.106 14.359 94.059 13.991 93.643 13.65V13.65C93.285 13.357 92.684 13.146 91.839 13.018 90.989 12.885 89.977 12.918 88.802 13.118 87.637 13.316 86.623 13.695 85.76 14.255V14.255C85.42 14.478 85.144 14.718 84.933 14.976 84.721 15.234 84.612 15.519 84.604 15.829V15.829C84.586 16.377 84.87 16.895 85.456 17.383V17.383C85.498 17.418 85.537 17.45 85.574 17.48V17.48C86.227 18.015 87.069 18.427 88.099 18.716 89.133 18.999 90.142 19.008 91.126 18.74V18.74C91.201 18.713 91.246 18.733 91.263 18.799 91.278 18.856 91.277 18.894 91.26 18.915 91.242 18.937 91.219 18.949 91.191 18.951V18.951C90.092 19.23 89.016 19.238 87.965 18.976 86.913 18.713 86.035 18.293 85.329 17.715V17.715C84.581 17.103 84.19 16.431 84.156 15.699V15.699C84.138 15.227 84.31 14.77 84.672 14.328V14.328C85.28 13.585 86.214 13.013 87.475 12.612V12.612C89.197 12.077 90.783 12.03 92.234 12.471V12.471C92.798 12.642 93.275 12.887 93.664 13.206V13.206C94.138 13.594 94.385 13.985 94.405 14.38V14.38C94.413 14.65 94.335 14.885 94.171 15.085V15.085C93.852 15.475 93.321 15.704 92.578 15.773 91.841 15.847 91.126 15.802 90.432 15.639 89.739 15.476 89.193 15.262 88.794 14.997V14.997C88.634 14.892 88.597 14.797 88.686 14.711V14.711C88.794 14.589 88.937 14.591 89.114 14.719V14.719C89.721 15.127 90.377 15.379 91.083 15.473 91.789 15.567 92.466 15.475 93.116 15.197V15.197C93.392 15.107 93.614 14.959 93.783 14.754ZM95.427 20.613V20.613C95.759 20.974 95.752 21.313 95.407 21.631V21.631C95.227 21.797 95.033 21.883 94.826 21.889V21.889C94.428 21.95 93.964 21.878 93.433 21.673 92.906 21.474 92.513 21.253 92.253 21.011V21.011C92.161 20.921 92.142 20.845 92.198 20.785V20.785C92.214 20.752 92.238 20.743 92.271 20.759 92.299 20.779 92.318 20.795 92.327 20.805V20.805C92.485 20.946 92.74 21.077 93.091 21.197V21.197C93.742 21.421 94.292 21.521 94.741 21.496V21.496C94.939 21.47 95.094 21.407 95.204 21.305 95.314 21.204 95.32 21.1 95.224 20.995V20.995C95.14 20.905 94.995 20.822 94.786 20.746V20.746C94.35 20.565 93.79 20.469 93.107 20.461 92.428 20.448 91.863 20.547 91.411 20.76V20.76C91.278 20.827 91.16 20.909 91.054 21.006 90.954 21.098 90.896 21.23 90.879 21.403 90.863 21.576 90.937 21.752 91.103 21.932V21.932C91.288 22.132 91.555 22.312 91.905 22.471V22.471C92.907 22.945 93.905 23.099 94.899 22.933V22.933C94.991 22.922 95.035 22.95 95.033 23.018V23.018C95.041 23.056 95.035 23.085 95.015 23.104 94.995 23.122 94.963 23.133 94.919 23.136V23.136C94.399 23.245 93.869 23.266 93.327 23.201V23.201C92.273 23.071 91.487 22.726 90.971 22.165V22.165C90.528 21.685 90.362 21.218 90.472 20.765V20.765C90.518 20.584 90.621 20.419 90.781 20.272 90.941 20.124 91.171 19.992 91.469 19.874V19.874C92.006 19.693 92.726 19.692 93.63 19.868 94.533 20.045 95.132 20.293 95.427 20.613ZM99.371 25.934V25.934C99.493 26.107 99.462 26.258 99.279 26.387 99.095 26.517 98.785 26.608 98.346 26.66 97.908 26.712 97.561 26.77 97.306 26.834V26.834C96.859 26.933 96.536 27.053 96.336 27.195 96.13 27.34 96.016 27.467 95.992 27.576V27.576C95.954 27.769 96.057 27.926 96.3 28.046 96.539 28.16 96.936 28.279 97.491 28.403 98.041 28.531 98.537 28.597 98.981 28.599V28.599C99.04 28.6 99.074 28.625 99.085 28.676 99.094 28.736 99.091 28.772 99.074 28.784 99.057 28.796 99.032 28.801 98.998 28.8V28.8C98.719 28.831 98.322 28.811 97.807 28.743 97.291 28.674 96.845 28.573 96.467 28.44 96.089 28.308 95.808 28.111 95.623 27.849V27.849C95.452 27.596 95.382 27.378 95.412 27.198 95.453 27.02 95.553 26.873 95.715 26.759 95.876 26.645 96.044 26.547 96.219 26.465 96.389 26.386 96.603 26.318 96.862 26.26V26.26C97.273 26.169 97.603 26.111 97.851 26.085 98.1 26.059 98.252 26.026 98.307 25.987 98.363 25.948 98.369 25.897 98.326 25.836V25.836C98.243 25.72 97.94 25.597 97.415 25.468V25.468C97.042 25.39 96.397 25.338 95.479 25.313 94.566 25.284 94.07 25.255 93.992 25.227V25.227C93.67 25.055 93.485 24.935 93.438 24.869 93.391 24.802 93.378 24.761 93.401 24.745 93.423 24.729 93.46 24.711 93.512 24.691 93.563 24.68 93.814 24.611 94.266 24.483 94.727 24.357 95.227 24.215 95.766 24.058 96.306 23.902 96.632 23.808 96.744 23.779 96.857 23.749 96.947 23.718 97.016 23.686 97.085 23.654 97.148 23.631 97.204 23.616 97.26 23.601 97.33 23.593 97.413 23.593 97.496 23.593 97.564 23.624 97.617 23.686 97.67 23.749 97.722 23.841 97.775 23.962 97.833 24.08 97.826 24.164 97.754 24.215V24.215C97.698 24.254 97.555 24.293 97.323 24.332 97.092 24.371 96.33 24.56 95.037 24.9V24.9C95.547 24.939 96.16 25.009 96.875 25.112 97.594 25.22 98.163 25.335 98.581 25.455V25.455C98.982 25.597 99.245 25.757 99.371 25.934ZM102.156 30.557L102.254 30.713C102.649 31.289 102.882 31.642 102.954 31.773 103.027 31.904 103.042 31.981 103 32.004V32.004C102.952 32.03 102.851 31.966 102.695 31.811 102.546 31.652 102.229 31.232 101.745 30.551V30.551C101.654 30.555 101.544 30.553 101.416 30.546V30.546C101.159 30.532 101.011 30.532 100.972 30.545V30.545C99.817 30.592 99.107 30.672 98.844 30.786V30.786C98.769 30.819 98.678 30.866 98.57 30.925 98.457 30.987 98.381 31.068 98.343 31.167V31.167C98.28 31.349 98.36 31.515 98.582 31.665 98.807 31.805 99.188 31.968 99.725 32.153 100.263 32.339 100.754 32.461 101.198 32.519V32.519C101.256 32.526 101.286 32.56 101.288 32.621V32.621C101.301 32.77 100.874 32.736 100.01 32.521V32.521C99.182 32.317 98.608 32.078 98.286 31.804V31.804C98.106 31.647 97.978 31.5 97.903 31.363V31.363C97.729 31.047 97.766 30.755 98.014 30.486V30.486C98.058 30.438 98.121 30.392 98.205 30.346V30.346C98.479 30.194 98.97 30.091 99.677 30.035V30.035C99.565 30.043 99.28 29.998 98.822 29.9V29.9C98.705 29.872 98.674 29.815 98.728 29.731V29.731C98.743 29.715 98.765 29.699 98.795 29.682 98.819 29.669 98.86 29.666 98.918 29.673V29.673C99.614 29.794 100.192 29.876 100.65 29.919V29.919C100.662 29.912 100.877 29.907 101.294 29.902V29.902C101.239 29.831 101.189 29.754 101.143 29.67 101.097 29.587 101.086 29.511 101.111 29.443 101.142 29.372 101.203 29.334 101.294 29.331V29.331C101.449 29.316 101.635 29.485 101.853 29.838V29.838C101.878 29.841 101.897 29.853 101.91 29.877V29.877L103.344 29.856C103.423 29.859 103.508 29.859 103.599 29.855 103.688 29.861 103.755 29.863 103.801 29.861 103.85 29.865 103.901 29.868 103.956 29.868 104.005 29.873 104.042 29.876 104.066 29.878 104.094 29.886 104.119 29.895 104.141 29.907V29.907C104.205 29.91 104.279 29.99 104.365 30.144 104.45 30.299 104.466 30.427 104.412 30.526V30.526C104.39 30.57 104.342 30.611 104.271 30.651 104.193 30.694 104.095 30.713 103.976 30.708 103.851 30.707 103.753 30.684 103.681 30.638 103.603 30.595 103.534 30.575 103.473 30.578V30.578ZM104.776 35.774V35.774C104.97 36.224 104.851 36.542 104.419 36.727V36.727C104.194 36.824 103.983 36.841 103.785 36.778V36.778C103.39 36.703 102.976 36.482 102.543 36.112 102.113 35.749 101.815 35.41 101.65 35.096V35.096C101.593 34.98 101.6 34.903 101.673 34.864V34.864C101.698 34.838 101.724 34.838 101.75 34.864 101.77 34.893 101.783 34.913 101.788 34.926V34.926C101.89 35.111 102.087 35.319 102.379 35.549V35.549C102.918 35.977 103.404 36.253 103.836 36.378V36.378C104.032 36.42 104.198 36.411 104.336 36.352 104.473 36.293 104.514 36.198 104.457 36.066V36.066C104.409 35.954 104.299 35.827 104.127 35.686V35.686C103.776 35.37 103.28 35.095 102.638 34.86 102.002 34.622 101.436 34.529 100.939 34.58V34.58C100.791 34.599 100.652 34.637 100.521 34.693 100.396 34.747 100.297 34.853 100.224 35.01 100.151 35.167 100.163 35.359 100.259 35.584V35.584C100.367 35.834 100.56 36.092 100.837 36.357V36.357C101.625 37.137 102.515 37.614 103.508 37.786V37.786C103.598 37.807 103.631 37.848 103.606 37.911V37.911C103.601 37.95 103.586 37.975 103.561 37.986 103.536 37.997 103.502 37.996 103.46 37.985V37.985C102.934 37.915 102.426 37.759 101.937 37.518V37.518C100.985 37.046 100.359 36.46 100.057 35.76V35.76C99.799 35.159 99.797 34.664 100.051 34.273V34.273C100.154 34.117 100.306 33.996 100.506 33.91 100.706 33.824 100.967 33.775 101.287 33.763V33.763C101.854 33.771 102.534 34.008 103.327 34.474 104.121 34.94 104.604 35.374 104.776 35.774ZM102.196 41.39V41.39C102.061 40.947 102.261 40.644 102.795 40.482 103.329 40.32 104.104 40.505 105.118 41.036V41.036C105.195 41.077 105.253 41.105 105.294 41.121V41.121L105.457 41.168C105.657 41.242 105.779 41.269 105.823 41.249V41.249L105.928 41.174C106.021 41.103 106.052 40.937 106.023 40.676 105.991 40.408 105.952 40.196 105.904 40.04V40.04C104.566 39.593 103.801 39.331 103.607 39.254 103.415 39.185 103.325 39.123 103.337 39.069 103.349 39.016 103.372 38.984 103.404 38.974 103.443 38.962 103.503 38.973 103.584 39.005V39.005C104.3 39.3 105.034 39.518 105.789 39.659V39.659C105.776 39.549 105.792 39.459 105.835 39.389 105.871 39.321 105.964 39.289 106.115 39.293 106.266 39.297 106.485 39.376 106.774 39.531 107.069 39.683 107.28 39.829 107.408 39.968 107.535 40.107 107.616 40.196 107.649 40.236 107.676 40.277 107.697 40.324 107.713 40.376V40.376C107.745 40.481 107.578 40.492 107.212 40.411V40.411L106.256 40.146C106.349 40.545 106.438 40.884 106.523 41.164V41.164L106.669 41.611C106.714 41.761 106.728 41.877 106.711 41.961 106.692 42.038 106.628 42.075 106.521 42.072V42.072C106.34 42.063 106.072 41.977 105.717 41.814V41.814C104.953 41.477 104.19 41.282 103.427 41.229V41.229C103.24 41.222 103.088 41.236 102.971 41.272V41.272C102.717 41.349 102.617 41.478 102.673 41.661V41.661C102.69 41.719 102.774 41.819 102.923 41.958 103.066 42.1 103.38 42.317 103.868 42.61 104.346 42.899 104.795 43.111 105.213 43.248V43.248C105.271 43.273 105.297 43.311 105.291 43.363 105.279 43.416 105.263 43.446 105.243 43.452 105.224 43.458 105.199 43.458 105.169 43.453V43.453C104.895 43.394 104.524 43.25 104.057 43.022 103.589 42.794 103.192 42.552 102.865 42.296V42.296C102.53 42.056 102.306 41.754 102.196 41.389Z" fill="#000000" data-fill-palette-color="accent"></path><path d="M0.306 55.76C0.306 54.059 1.686 52.679 3.387 52.679 5.089 52.679 6.468 54.059 6.468 55.76 6.468 57.462 5.089 58.841 3.387 58.841 1.686 58.841 0.306 57.462 0.306 55.76ZM104.976 55.76C104.976 54.059 106.355 52.679 108.056 52.679 109.758 52.679 111.137 54.059 111.137 55.76 111.137 57.462 109.758 58.841 108.056 58.841 106.355 58.841 104.976 57.462 104.976 55.76Z" fill="#000000" data-fill-palette-color="accent"></path></g></svg></g></svg></g></svg></g><defs></defs></svg><rect width="395.52" height="83.70747555143488" fill="none" stroke="none" visibility="hidden"></rect></g></svg></g></svg>